<svg width="14" height="14" viewBox="0 0 14 14" fill="none" xmlns="http://www.w3.org/2000/svg">
<path d="M7 1C3.68663 1 1 3.68663 1 7C1 10.3134 3.68663 13 7 13C10.3134 13 13 10.3134 13 7C13 3.68663 10.3134 1 7 1Z" stroke="#263238" stroke-miterlimit="10"/>
<path d="M6.08691 6.08696H7.13039V9.86957" stroke="#263238" stroke-linecap="round" stroke-linejoin="round"/>
<path d="M5.6958 10H8.56537H5.6958Z" fill="#263238"/>
<path d="M5.6958 10H8.56537" stroke="#263238" stroke-miterlimit="10" stroke-linecap="round"/>
<path d="M7.00017 3.15218C6.83249 3.15218 6.66857 3.2019 6.52914 3.29506C6.38972 3.38822 6.28105 3.52063 6.21688 3.67555C6.15271 3.83047 6.13592 4.00094 6.16863 4.1654C6.20135 4.32987 6.2821 4.48094 6.40067 4.59951C6.51924 4.71808 6.67031 4.79882 6.83477 4.83154C6.99923 4.86425 7.1697 4.84746 7.32462 4.78329C7.47954 4.71912 7.61195 4.61045 7.70511 4.47103C7.79827 4.3316 7.848 4.16769 7.848 4C7.848 3.77514 7.75867 3.5595 7.59967 3.4005C7.44068 3.2415 7.22503 3.15218 7.00017 3.15218Z" fill="#263238"/>
</svg>
