<svg width="14" height="14" viewBox="0 0 14 14" fill="none" xmlns="http://www.w3.org/2000/svg">
<path d="M7 1C3.68663 1 1 3.68663 1 7C1 10.3134 3.68663 13 7 13C10.3134 13 13 10.3134 13 7C13 3.68663 10.3134 1 7 1Z" stroke="#263238" stroke-miterlimit="10"/>
<path d="M6.08691 6.08691H7.13039V9.86952" stroke="#263238" stroke-linecap="round" stroke-linejoin="round"/>
<path d="M5.6958 10H8.56537H5.6958Z" fill="#263238"/>
<path d="M5.6958 10H8.56537" stroke="#263238" stroke-miterlimit="10" stroke-linecap="round"/>
<path d="M7.00017 3.1521C6.83249 3.1521 6.66857 3.20182 6.52914 3.29498C6.38972 3.38814 6.28105 3.52056 6.21688 3.67548C6.15271 3.8304 6.13592 4.00087 6.16863 4.16533C6.20135 4.32979 6.2821 4.48086 6.40067 4.59943C6.51924 4.718 6.67031 4.79875 6.83477 4.83146C6.99923 4.86417 7.1697 4.84739 7.32462 4.78322C7.47954 4.71905 7.61195 4.61038 7.70511 4.47095C7.79827 4.33153 7.848 4.16761 7.848 3.99993C7.848 3.77507 7.75867 3.55942 7.59967 3.40042C7.44068 3.24142 7.22503 3.1521 7.00017 3.1521Z" fill="#263238"/>
</svg>
