<svg width="12" height="12" viewBox="0 0 12 12" fill="none" xmlns="http://www.w3.org/2000/svg">
<path d="M6 0C9.3138 0 12 2.6862 12 6C12 9.3138 9.3138 12 6 12C2.6862 12 0 9.3138 0 6C0 2.6862 2.6862 0 6 0ZM6 0.9C4.6474 0.9 3.35019 1.43732 2.39376 2.39376C1.43732 3.35019 0.9 4.6474 0.9 6C0.9 7.3526 1.43732 8.64981 2.39376 9.60625C3.35019 10.5627 4.6474 11.1 6 11.1C7.3526 11.1 8.64981 10.5627 9.60625 9.60625C10.5627 8.64981 11.1 7.3526 11.1 6C11.1 4.6474 10.5627 3.35019 9.60625 2.39376C8.64981 1.43732 7.3526 0.9 6 0.9ZM6 3C6.11935 3 6.23381 3.04741 6.3182 3.1318C6.40259 3.21619 6.45 3.33065 6.45 3.45V5.55H8.55C8.66935 5.55 8.78381 5.59741 8.8682 5.6818C8.95259 5.76619 9 5.88065 9 6C9 6.11935 8.95259 6.23381 8.8682 6.3182C8.78381 6.40259 8.66935 6.45 8.55 6.45H6.45V8.55C6.45 8.66935 6.40259 8.78381 6.3182 8.8682C6.23381 8.95259 6.11935 9 6 9C5.88065 9 5.76619 8.95259 5.6818 8.8682C5.59741 8.78381 5.55 8.66935 5.55 8.55V6.45H3.45C3.33065 6.45 3.21619 6.40259 3.1318 6.3182C3.04741 6.23381 3 6.11935 3 6C3 5.88065 3.04741 5.76619 3.1318 5.6818C3.21619 5.59741 3.33065 5.55 3.45 5.55H5.55V3.45C5.55 3.33065 5.59741 3.21619 5.6818 3.1318C5.76619 3.04741 5.88065 3 6 3Z" fill="#263238"/>
</svg>
