<svg width="9" height="9" viewBox="0 0 9 9" fill="none" xmlns="http://www.w3.org/2000/svg">
<path d="M4.5 2.25C4.59946 2.25 4.69484 2.28951 4.76517 2.35984C4.83549 2.43016 4.875 2.52554 4.875 2.625V4.125H6.375C6.47446 4.125 6.56984 4.16451 6.64017 4.23484C6.71049 4.30516 6.75 4.40054 6.75 4.5C6.75 4.59946 6.71049 4.69484 6.64017 4.76517C6.56984 4.83549 6.47446 4.875 6.375 4.875H4.875V6.375C4.875 6.47446 4.83549 6.56984 4.76517 6.64017C4.69484 6.71049 4.59946 6.75 4.5 6.75C4.40054 6.75 4.30516 6.71049 4.23484 6.64017C4.16451 6.56984 4.125 6.47446 4.125 6.375V4.875H2.625C2.52554 4.875 2.43016 4.83549 2.35984 4.76517C2.28951 4.69484 2.25 4.59946 2.25 4.5C2.25 4.40054 2.28951 4.30516 2.35984 4.23484C2.43016 4.16451 2.52554 4.125 2.625 4.125H4.125V2.625C4.125 2.52554 4.16451 2.43016 4.23484 2.35984C4.30516 2.28951 4.40054 2.25 4.5 2.25Z" fill="#FC4A1A"/>
<path d="M0 4.5C-8.80582e-09 3.90905 0.116396 3.32389 0.342542 2.77792C0.568688 2.23196 0.900156 1.73588 1.31802 1.31802C1.73588 0.900156 2.23196 0.568688 2.77792 0.342542C3.32389 0.116396 3.90905 0 4.5 0C5.09095 0 5.67611 0.116396 6.22208 0.342542C6.76804 0.568688 7.26412 0.900156 7.68198 1.31802C8.09984 1.73588 8.43131 2.23196 8.65746 2.77792C8.8836 3.32389 9 3.90905 9 4.5C9 5.69347 8.52589 6.83807 7.68198 7.68198C6.83807 8.52589 5.69347 9 4.5 9C3.30653 9 2.16193 8.52589 1.31802 7.68198C0.474106 6.83807 1.77842e-08 5.69347 0 4.5ZM4.5 0.75C3.50544 0.75 2.55161 1.14509 1.84835 1.84835C1.14509 2.55161 0.75 3.50544 0.75 4.5C0.75 5.49456 1.14509 6.44839 1.84835 7.15165C2.55161 7.85491 3.50544 8.25 4.5 8.25C5.49456 8.25 6.44839 7.85491 7.15165 7.15165C7.85491 6.44839 8.25 5.49456 8.25 4.5C8.25 3.50544 7.85491 2.55161 7.15165 1.84835C6.44839 1.14509 5.49456 0.75 4.5 0.75Z" fill="#FC4A1A"/>
</svg>
