<svg width="9" height="15" viewBox="0 0 9 15" fill="none" xmlns="http://www.w3.org/2000/svg">
<path d="M8.65584 14.6698C8.87621 14.4584 9 14.1716 9 13.8725C9 13.5735 8.87621 13.2867 8.65584 13.0753L2.83731 7.49319L8.65584 1.91111C8.86996 1.69843 8.98844 1.41357 8.98576 1.11789C8.98308 0.822216 8.85946 0.539376 8.64152 0.330293C8.42358 0.12121 8.12876 0.00261307 7.82056 4.3869e-05C7.51236 -0.00252628 7.21543 0.111139 6.99374 0.316558L0.344159 6.69591C0.123795 6.90739 0 7.19417 0 7.49319C0 7.79222 0.123795 8.079 0.344159 8.29047L6.99374 14.6698C7.21417 14.8812 7.5131 15 7.82479 15C8.13648 15 8.43541 14.8812 8.65584 14.6698Z" fill="#263238"/>
</svg>
