<svg width="11" height="11" viewBox="0 0 11 11" fill="none" xmlns="http://www.w3.org/2000/svg">
<path d="M8.08463 3.84821H7.31499C7.31468 3.54212 7.19295 3.24865 6.97651 3.03222C6.76008 2.81578 6.46661 2.69405 6.16052 2.69375V1.9241C6.67064 1.92471 7.15969 2.12763 7.5204 2.48834C7.8811 2.84904 8.08402 3.33809 8.08463 3.84821Z" fill="black"/>
<path d="M9.62392 3.84821H8.85428C8.85347 3.13404 8.5694 2.44934 8.0644 1.94434C7.5594 1.43935 6.87471 1.15528 6.16053 1.15446V0.384821C7.07877 0.38584 7.95911 0.751059 8.6084 1.40035C9.25769 2.04964 9.62291 2.92998 9.62392 3.84821ZM8.85428 10.0053H8.78886C1.22713 9.5705 0.153476 3.19017 0.00339585 1.24297C-0.0200605 0.937712 0.078699 0.635636 0.277951 0.403187C0.477203 0.170738 0.760629 0.0269547 1.06589 0.00346378C1.09642 0.00115485 1.12707 3.60805e-07 1.15786 3.60805e-07H3.18587C3.34001 -0.000148859 3.49065 0.0459902 3.61826 0.132441C3.74588 0.218892 3.8446 0.341671 3.90163 0.484875L4.48656 1.92411C4.54288 2.06401 4.55686 2.21737 4.52675 2.36515C4.49665 2.51292 4.4238 2.6486 4.31724 2.75532L3.49757 3.58269C3.62509 4.31051 3.97336 4.9815 4.49516 5.50468C5.01696 6.02785 5.68703 6.37789 6.41452 6.50733L7.24958 5.67996C7.3579 5.57458 7.49486 5.50342 7.64336 5.47537C7.79186 5.44731 7.94533 5.46359 8.08464 5.52218L9.53542 6.10326C9.67646 6.1621 9.7968 6.26159 9.88109 6.38906C9.96539 6.51653 10.0098 6.66621 10.0087 6.81903V8.85089C10.0087 9.15707 9.88711 9.45071 9.67061 9.66721C9.45411 9.88372 9.16046 10.0053 8.85428 10.0053ZM1.15786 0.769643C1.10732 0.769491 1.05725 0.779294 1.01051 0.798493C0.96376 0.817692 0.921252 0.84591 0.885411 0.881537C0.84957 0.917164 0.821097 0.959502 0.801618 1.00613C0.782139 1.05276 0.772035 1.10277 0.771884 1.15331C0.771884 1.16408 0.772268 1.17473 0.773038 1.18525C0.950056 3.46339 2.08528 8.85089 8.83119 9.23571C8.93304 9.24181 9.03315 9.20721 9.1095 9.13952C9.18585 9.07183 9.23219 8.97659 9.23833 8.87474L9.2391 8.85089V6.81903L7.78833 6.23795L6.68389 7.33469L6.49918 7.3116C3.15123 6.89215 2.69714 3.5442 2.69714 3.50957L2.67405 3.32485L3.76695 2.22042L3.18971 0.769643H1.15786Z" fill="black"/>
</svg>
