<svg width="14" height="14" viewBox="0 0 14 14" fill="none" xmlns="http://www.w3.org/2000/svg">
<path d="M3.14324 10.3393L11.031 10.3333M7.03347 1C8.31134 1 9.37867 1.9 9.6385 3.10067C9.97636 3.00918 10.3289 2.98517 10.676 3.03002C11.0232 3.07487 11.3581 3.1877 11.6616 3.36205C11.9652 3.53641 12.2314 3.76889 12.4452 4.04621C12.6589 4.32353 12.816 4.64027 12.9075 4.97833C12.9989 5.3164 13.0229 5.66918 12.9781 6.01652C12.9332 6.36386 12.8205 6.69897 12.6462 7.00271C12.472 7.30645 12.2397 7.57288 11.9625 7.78677C11.6854 8.00067 11.3688 8.15785 11.031 8.24933V13H3.03597V8.24933C2.69011 8.16513 2.3646 8.01248 2.07864 7.8004C1.79267 7.58831 1.55204 7.32108 1.37093 7.01446C1.18983 6.70783 1.07191 6.36803 1.02413 6.01508C0.976351 5.66213 0.999683 5.30318 1.09275 4.9594C1.18581 4.61562 1.34673 4.29396 1.566 4.01339C1.78528 3.73283 2.05848 3.49904 2.36949 3.3258C2.6805 3.15257 3.02303 3.0434 3.37687 3.00473C3.73072 2.96607 4.08872 2.99869 4.42977 3.10067C4.5588 2.50565 4.88748 1.97276 5.36116 1.59059C5.83485 1.20842 6.42499 1.00001 7.03347 1V1Z" stroke="#263238" stroke-linecap="round" stroke-linejoin="round"/>
</svg>
