<svg width="11" height="7" viewBox="0 0 11 7" fill="none" xmlns="http://www.w3.org/2000/svg">
<path d="M10.7579 0.267679C10.6028 0.0962844 10.3925 0 10.1732 0C9.95392 0 9.74361 0.0962844 9.58853 0.267679L5.49501 4.7932L1.40148 0.267679C1.24551 0.101142 1.03662 0.00899045 0.819788 0.0110735C0.602958 0.0131565 0.395542 0.109307 0.242214 0.278816C0.0888863 0.448325 0.00191593 0.677629 3.14713e-05 0.917342C-0.00185299 1.15705 0.081502 1.388 0.232141 1.56042L4.91034 6.73232C5.06542 6.90372 5.27572 7 5.49501 7C5.71429 7 5.9246 6.90372 6.07968 6.73232L10.7579 1.56042C10.9129 1.38898 11 1.15648 11 0.914052C11 0.671626 10.9129 0.439126 10.7579 0.267679Z" fill="#263238"/>
</svg>
