<svg width="10" height="7" viewBox="0 0 10 7" fill="none" xmlns="http://www.w3.org/2000/svg">
<path d="M6.86862 3.51476L9.43164 1.15984V5.84281L6.86862 3.51476ZM3.56598 3.91357L4.46602 4.73982C4.60728 4.86673 4.79145 4.94341 4.99271 4.94341H4.99979H4.99937H5.00521C5.20688 4.94341 5.39106 4.86629 5.53398 4.7385L5.53273 4.73938L6.43277 3.91313L9.16872 6.39805H0.831285L3.56598 3.91357ZM0.827534 0.601511H9.17372L5.1648 4.28373C5.11972 4.32143 5.06393 4.34193 5.00646 4.34189H5.00063H5.00104H4.99521C4.93753 4.34197 4.88155 4.3213 4.83645 4.28329L4.83687 4.28373L0.827534 0.601511ZM0.568774 1.1594L3.13138 3.51432L0.568774 5.84104V1.1594ZM9.56915 0.0837268C9.46914 0.0308467 9.35164 0 9.22705 0H0.774616C0.653844 3.05096e-05 0.534733 0.0297497 0.426684 0.0868115L0.431268 0.0846081C0.301918 0.152079 0.192986 0.256459 0.116777 0.385956C0.0405686 0.515454 0.000119733 0.664909 0 0.817438L0 6.18124C0.000220594 6.39832 0.0818586 6.60644 0.227001 6.75993C0.372144 6.91343 0.568936 6.99977 0.774199 7H9.2258C9.43106 6.99977 9.62786 6.91343 9.773 6.75993C9.91814 6.60644 9.99978 6.39832 10 6.18124V0.817438C10 0.497073 9.82541 0.219452 9.57123 0.0859302L9.56665 0.0837268H9.56915Z" fill="#263238"/>
</svg>
