<svg width="10" height="10" viewBox="0 0 14 10" fill="none" xmlns="http://www.w3.org/2000/svg">
<path d="M9.61607 5.02109L13.2043 1.65691V8.34687L9.61607 5.02109ZM4.99237 5.59081L6.25243 6.77117C6.45019 6.95247 6.70803 7.06201 6.98979 7.06201H6.99971H6.99913H7.00729C7.28964 7.06201 7.54748 6.95184 7.74757 6.76928L7.74582 6.77054L9.00587 5.59018L12.8362 9.14007H1.1638L4.99237 5.59081ZM1.15855 0.859301H12.8432L7.23072 6.11961C7.16761 6.17347 7.0895 6.20275 7.00904 6.20271H7.00087H7.00146H6.99329C6.91255 6.20282 6.83417 6.17329 6.77103 6.11898L6.77162 6.11961L1.15855 0.859301ZM0.796283 1.65628L4.38393 5.02046L0.796283 8.34435V1.65628ZM13.3968 0.11961C13.2568 0.0440668 13.0923 0 12.9179 0H1.08446C0.915382 4.35851e-05 0.748626 0.0424996 0.597358 0.124016L0.603775 0.120869C0.422685 0.217256 0.270181 0.36637 0.163488 0.551366C0.0567961 0.736363 0.000167627 0.949869 0 1.16777L0 8.83034C0.000308832 9.14045 0.114602 9.43777 0.317802 9.65705C0.521002 9.87633 0.796511 9.99967 1.08388 10H12.9161C13.2035 9.99967 13.479 9.87633 13.6822 9.65705C13.8854 9.43777 13.9997 9.14045 14 8.83034V1.16777C14 0.710104 13.7556 0.313503 13.3997 0.122757L13.3933 0.11961H13.3968Z" fill="#263238"/>
</svg>
