<svg width="12" height="8" viewBox="0 0 12 8" fill="none" xmlns="http://www.w3.org/2000/svg">
<path d="M8.7 6C9.732 6 10.95 6.45714 11.1 6.73143V7.14286H6.3V6.73143C6.45 6.45714 7.668 6 8.7 6ZM8.7 5.14286C7.602 5.14286 5.4 5.66857 5.4 6.71429V8H12V6.71429C12 5.66857 9.798 5.14286 8.7 5.14286ZM4.2 4.57143C2.802 4.57143 0 5.24 0 6.57143V8H4.2V7.14286H0.9V6.57143C0.9 6.21143 2.574 5.33714 4.692 5.42857C4.94993 5.13481 5.2659 4.89212 5.622 4.71429C5.15398 4.62287 4.67774 4.57503 4.2 4.57143ZM4.2 0.857143C4.378 0.857143 4.55201 0.907414 4.70001 1.0016C4.84802 1.09578 4.96337 1.22965 5.03149 1.38627C5.09961 1.54289 5.11743 1.71524 5.08271 1.88151C5.04798 2.04778 4.96226 2.2005 4.8364 2.32038C4.71053 2.44025 4.55016 2.52189 4.37558 2.55496C4.201 2.58803 4.02004 2.57106 3.85559 2.50618C3.69113 2.44131 3.55057 2.33144 3.45168 2.19049C3.35278 2.04953 3.3 1.88381 3.3 1.71429C3.3 1.48696 3.39482 1.26894 3.5636 1.10819C3.73239 0.947449 3.96131 0.857143 4.2 0.857143ZM4.2 0C3.84399 0 3.49598 0.100541 3.19997 0.288909C2.90397 0.477278 2.67325 0.745012 2.53702 1.05826C2.40078 1.3715 2.36513 1.71619 2.43459 2.04873C2.50404 2.38127 2.67547 2.68672 2.92721 2.92647C3.17894 3.16622 3.49967 3.32949 3.84884 3.39563C4.198 3.46178 4.55992 3.42783 4.88883 3.29808C5.21774 3.16833 5.49886 2.9486 5.69665 2.66669C5.89443 2.38478 6 2.05334 6 1.71429C6 1.25963 5.81036 0.823594 5.47279 0.502103C5.13523 0.180612 4.67739 0 4.2 0ZM8.7 2C8.81867 2 8.93467 2.03351 9.03334 2.0963C9.13201 2.15909 9.20892 2.24834 9.25433 2.35275C9.29974 2.45717 9.31162 2.57206 9.28847 2.68291C9.26532 2.79376 9.20818 2.89557 9.12426 2.97549C9.04035 3.05541 8.93344 3.10983 8.81705 3.13188C8.70067 3.15393 8.58003 3.14261 8.47039 3.09936C8.36075 3.05611 8.26705 2.98287 8.20112 2.8889C8.13519 2.79493 8.1 2.68445 8.1 2.57143C8.1 2.41988 8.16321 2.27453 8.27574 2.16737C8.38826 2.0602 8.54087 2 8.7 2ZM8.7 1.14286C8.40333 1.14286 8.11332 1.22664 7.86664 1.38362C7.61997 1.54059 7.42771 1.7637 7.31418 2.02474C7.20065 2.28578 7.17094 2.57301 7.22882 2.85013C7.2867 3.12725 7.42956 3.38179 7.63934 3.58158C7.84912 3.78137 8.11639 3.91743 8.40736 3.97255C8.69834 4.02767 8.99994 3.99938 9.27403 3.89126C9.54811 3.78313 9.78238 3.60003 9.9472 3.3651C10.112 3.13017 10.2 2.85397 10.2 2.57143C10.2 2.19255 10.042 1.82919 9.76066 1.56128C9.47936 1.29337 9.09783 1.14286 8.7 1.14286Z" fill="#263238"/>
</svg>
