<svg width="12" height="10" viewBox="0 0 12 10" fill="none" xmlns="http://www.w3.org/2000/svg">
<path d="M3.71128 1.83684C3.97087 1.70798 4.2502 1.66688 4.52236 1.66688C4.87745 1.66792 5.22163 1.78092 5.49851 1.98736C5.80775 2.22287 6.0177 2.58391 6.0177 3.05492C6.0177 3.59647 5.60558 3.8903 5.3735 4.05582L5.32266 4.09248C5.06905 4.27744 4.97096 4.37631 4.97096 4.58238C4.97096 4.69286 4.92369 4.79882 4.83956 4.87695C4.75543 4.95507 4.64133 4.99896 4.52236 4.99896C4.40338 4.99896 4.28927 4.95507 4.20514 4.87695C4.12102 4.79882 4.07375 4.69286 4.07375 4.58238C4.07375 3.95251 4.49903 3.63369 4.76879 3.43706C5.07563 3.21322 5.12049 3.16323 5.12049 3.05492C5.12049 2.83441 5.03137 2.70944 4.92909 2.63223C4.81308 2.54739 4.67002 2.50069 4.52236 2.49948C4.3459 2.49948 4.22448 2.5267 4.13357 2.57169C4.04803 2.6139 3.95771 2.68833 3.87039 2.8383C3.8423 2.88644 3.80429 2.92897 3.7585 2.96347C3.71272 2.99797 3.66007 3.02376 3.60356 3.03936C3.54704 3.05496 3.48777 3.06007 3.42913 3.0544C3.37049 3.04874 3.31362 3.0324 3.26178 3.00632C3.20994 2.98024 3.16414 2.94494 3.12699 2.90243C3.08984 2.85991 3.06207 2.81102 3.04527 2.75854C3.02847 2.70606 3.02296 2.65102 3.02906 2.59656C3.03517 2.54211 3.05276 2.4893 3.08084 2.44116C3.23875 2.17122 3.4469 1.96737 3.71128 1.83628V1.83684ZM4.52236 6.66528C4.68099 6.66528 4.83313 6.60676 4.9453 6.5026C5.05747 6.39843 5.12049 6.25715 5.12049 6.10984C5.12049 5.96253 5.05747 5.82125 4.9453 5.71709C4.83313 5.61292 4.68099 5.5544 4.52236 5.5544C4.36372 5.5544 4.21158 5.61292 4.09941 5.71709C3.98724 5.82125 3.92422 5.96253 3.92422 6.10984C3.92422 6.25715 3.98724 6.39843 4.09941 6.5026C4.21158 6.60676 4.36372 6.66528 4.52236 6.66528ZM4.52236 5.88834e-08C3.76781 -0.000117738 3.02541 0.176506 2.36388 0.513527C1.70235 0.850548 1.14304 1.33708 0.737729 1.92809C0.332414 2.51911 0.0941834 3.19551 0.0450813 3.89471C-0.00402073 4.59391 0.137593 5.29332 0.456817 5.92821L0.0231678 7.50677C-0.00866154 7.62273 -0.00767866 7.74435 0.0260212 7.85985C0.0597211 7.97534 0.124994 8.08079 0.215508 8.16596C0.306021 8.25113 0.418703 8.31313 0.542622 8.34595C0.666541 8.37877 0.79749 8.38129 0.922766 8.35326C1.37137 8.25328 2.06102 8.09943 2.67531 7.96334C3.28522 8.21874 3.94892 8.34422 4.61781 8.3306C5.2867 8.31697 5.94384 8.16458 6.5411 7.88459C7.13836 7.60459 7.66061 7.20409 8.06961 6.7124C8.47861 6.22072 8.764 5.65031 8.90487 5.04294C9.04575 4.43558 9.03854 3.80664 8.88378 3.2022C8.72902 2.59776 8.43063 2.03311 8.01045 1.54962C7.59028 1.06613 7.05897 0.676035 6.45543 0.407907C5.85189 0.139779 5.19141 0.000407268 4.52236 5.88834e-08ZM0.933532 4.1658C0.933769 3.44112 1.18837 2.73625 1.65876 2.15801C2.12915 1.57978 2.7897 1.15968 3.5403 0.961371C4.2909 0.763067 5.09066 0.797366 5.81838 1.05907C6.54611 1.32078 7.16214 1.79562 7.57314 2.41166C7.98414 3.0277 8.16769 3.75135 8.096 4.47297C8.02431 5.19459 7.70127 5.87485 7.17584 6.41066C6.65041 6.94647 5.95122 7.30864 5.18421 7.44229C4.41721 7.57593 3.62419 7.47377 2.92533 7.15129L2.77998 7.08408L2.62148 7.11908L0.953869 7.48955C1.0735 7.05631 1.23021 6.4831 1.36658 5.98542L1.40845 5.83212L1.3307 5.69159C1.06873 5.21984 0.932532 4.69658 0.933532 4.1658ZM7.51304 9.99792C6.38147 9.99938 5.29139 9.60241 4.46254 8.88704H4.52236C4.95182 8.88704 5.36872 8.83761 5.76708 8.74429C6.28387 9.01202 6.87961 9.16476 7.51364 9.16476C8.08785 9.16476 8.62976 9.03979 9.11007 8.81761L9.25541 8.7504L9.41392 8.7854C9.9648 8.90759 10.5893 9.03257 11.0528 9.12421C10.9294 8.63237 10.8014 8.14153 10.6688 7.65174L10.6269 7.49844L10.7047 7.35791C10.9667 6.88616 11.1029 6.3629 11.1019 5.83212C11.1022 5.27494 10.9519 4.72659 10.6649 4.23731C10.3778 3.74803 9.9631 3.33347 9.45878 3.03159C9.3533 2.63486 9.19244 2.25262 8.98027 1.89461C9.57406 2.08554 10.1181 2.39014 10.577 2.78869C11.036 3.18724 11.3997 3.67086 11.6447 4.20823C11.8896 4.7456 12.0103 5.32475 11.9989 5.90818C11.9875 6.49161 11.8443 7.06631 11.5786 7.59509C11.7299 8.15497 11.8836 8.76151 11.9805 9.15199C12.009 9.26517 12.0062 9.38318 11.9725 9.49511C11.9388 9.60704 11.8752 9.70926 11.7877 9.79233C11.7002 9.87539 11.5915 9.9366 11.4717 9.97031C11.3519 10.004 11.2249 10.0091 11.1025 9.98515C10.6676 9.90072 9.98394 9.76519 9.36009 9.62966C8.77967 9.87316 8.14994 9.99872 7.51304 9.99792Z" fill="#263238"/>
</svg>
