<svg width="12" height="12" viewBox="0 0 12 12" fill="none" xmlns="http://www.w3.org/2000/svg">
<path fill-rule="evenodd" clip-rule="evenodd" d="M0.75 6C0.75 4.60761 1.30312 3.27226 2.28769 2.28769C3.27226 1.30312 4.60761 0.75 6 0.75C7.39239 0.75 8.72774 1.30312 9.71231 2.28769C10.6969 3.27226 11.25 4.60761 11.25 6C11.25 7.39239 10.6969 8.72774 9.71231 9.71231C8.72774 10.6969 7.39239 11.25 6 11.25C4.60761 11.25 3.27226 10.6969 2.28769 9.71231C1.30312 8.72774 0.75 7.39239 0.75 6V6ZM12 6C12 4.4087 11.3679 2.88258 10.2426 1.75736C9.11742 0.632141 7.5913 0 6 0C4.4087 0 2.88258 0.632141 1.75736 1.75736C0.632141 2.88258 0 4.4087 0 6C0 7.5913 0.632141 9.11742 1.75736 10.2426C2.88258 11.3679 4.4087 12 6 12C7.5913 12 9.11742 11.3679 10.2426 10.2426C11.3679 9.11742 12 7.5913 12 6V6ZM6.375 8.625C6.375 8.72446 6.33549 8.81984 6.26517 8.89016C6.19484 8.96049 6.09946 9 6 9C5.90054 9 5.80516 8.96049 5.73484 8.89016C5.66451 8.81984 5.625 8.72446 5.625 8.625V4.28025L4.0155 5.8905C3.94509 5.96092 3.84958 6.00047 3.75 6.00047C3.65042 6.00047 3.55491 5.96092 3.4845 5.8905C3.41408 5.82009 3.37453 5.72458 3.37453 5.625C3.37453 5.52542 3.41408 5.42991 3.4845 5.3595L5.7345 3.1095C5.76933 3.07458 5.81072 3.04687 5.85627 3.02797C5.90183 3.00906 5.95067 2.99933 6 2.99933C6.04933 2.99933 6.09817 3.00906 6.14372 3.02797C6.18928 3.04687 6.23067 3.07458 6.2655 3.1095L8.5155 5.3595C8.58592 5.42991 8.62547 5.52542 8.62547 5.625C8.62547 5.72458 8.58592 5.82009 8.5155 5.8905C8.44509 5.96092 8.34958 6.00047 8.25 6.00047C8.15042 6.00047 8.05491 5.96092 7.9845 5.8905L6.375 4.28025V8.625Z" fill="#263238"/>
</svg>
