<svg width="28" height="28" viewBox="0 0 28 28" fill="none" xmlns="http://www.w3.org/2000/svg">
<path d="M13.8028 0C6.17964 0 0 6.17964 0 13.8028C0 21.426 6.17964 27.6056 13.8028 27.6056C21.426 27.6056 27.6056 21.426 27.6056 13.8028C27.6056 6.17964 21.426 0 13.8028 0ZM17.0724 9.53832H14.9976C14.7518 9.53832 14.4786 9.86182 14.4786 10.2917V11.7899H17.0738L16.6813 13.9265H14.4786V20.3405H12.03V13.9265H9.80863V11.7899H12.03V10.5333C12.03 8.73028 13.2809 7.26517 14.9976 7.26517H17.0724V9.53832V9.53832Z" fill="url(#paint0_linear_1_800)"/>
<defs>
<linearGradient id="paint0_linear_1_800" x1="8.38028" y1="7.78638e-07" x2="27.6056" y2="27.6056" gradientUnits="userSpaceOnUse">
<stop stop-color="#FC4A1A"/>
<stop offset="1" stop-color="#F7B733"/>
</linearGradient>
</defs>
</svg>
