<svg width="10" height="12" viewBox="0 0 10 12" fill="none" xmlns="http://www.w3.org/2000/svg">
<path d="M9.3025 0H7.20998C7.02499 0 6.84758 0.0653939 6.71677 0.181796C6.58597 0.298198 6.51248 0.456073 6.51248 0.62069C6.51248 0.785307 6.58597 0.943182 6.71677 1.05958C6.84758 1.17599 7.02499 1.24138 7.20998 1.24138H7.61686L6.74498 2.02241C6.01479 1.5146 5.11419 1.23957 4.18746 1.24138C3.13769 1.24084 2.12602 1.59139 1.3531 2.22353C0.580176 2.85566 0.102451 3.7232 0.0146661 4.6541C-0.0731184 5.58499 0.23545 6.51125 0.879175 7.24917C1.5229 7.98709 2.45476 8.48278 3.48996 8.63793V9.31034H2.32745C2.14246 9.31034 1.96505 9.37574 1.83424 9.49214C1.70344 9.60854 1.62995 9.76642 1.62995 9.93104C1.62995 10.0957 1.70344 10.2535 1.83424 10.3699C1.96505 10.4863 2.14246 10.5517 2.32745 10.5517H3.48996V11.3793C3.48996 11.5439 3.56345 11.7018 3.69425 11.8182C3.82506 11.9346 4.00247 12 4.18746 12C4.37245 12 4.54987 11.9346 4.68067 11.8182C4.81148 11.7018 4.88497 11.5439 4.88497 11.3793V10.5517H6.04748C6.23247 10.5517 6.40988 10.4863 6.54069 10.3699C6.67149 10.2535 6.74498 10.0957 6.74498 9.93104C6.74498 9.76642 6.67149 9.60854 6.54069 9.49214C6.40988 9.37574 6.23247 9.31034 6.04748 9.31034H4.88497V8.63793C5.56951 8.53478 6.21446 8.28169 6.76171 7.90147C7.30896 7.52126 7.74131 7.02586 8.0198 6.45991C8.2983 5.89396 8.41419 5.27525 8.35704 4.65952C8.29989 4.04378 8.07149 3.45037 7.69242 2.93276L8.60499 2.12069V2.48276C8.60499 2.64738 8.67848 2.80525 8.80929 2.92165C8.94009 3.03805 9.11751 3.10345 9.3025 3.10345C9.48748 3.10345 9.6649 3.03805 9.7957 2.92165C9.92651 2.80525 10 2.64738 10 2.48276V0.62069C10 0.456073 9.92651 0.298198 9.7957 0.181796C9.6649 0.0653939 9.48748 0 9.3025 0ZM4.18746 7.44828C3.63565 7.44828 3.09623 7.30266 2.63741 7.02986C2.1786 6.75705 1.82099 6.36929 1.60982 5.91563C1.39865 5.46196 1.3434 4.96276 1.45106 4.48116C1.55871 3.99955 1.82443 3.55716 2.21462 3.20994C2.60482 2.86272 3.10195 2.62626 3.64316 2.53046C4.18437 2.43467 4.74535 2.48383 5.25516 2.67175C5.76497 2.85966 6.20071 3.17788 6.50728 3.58617C6.81385 3.99446 6.97748 4.47447 6.97748 4.96552C6.97748 5.62399 6.68353 6.25549 6.16031 6.72109C5.63707 7.1867 4.92742 7.44828 4.18746 7.44828Z" fill="#263238"/>
</svg>
