<svg width="12" height="12" viewBox="0 0 12 12" fill="none" xmlns="http://www.w3.org/2000/svg">
<path d="M6 0C2.688 0 0 2.688 0 6C0 9.312 2.688 12 6 12C9.312 12 12 9.312 12 6C12 2.688 9.312 0 6 0ZM6 10.8C3.354 10.8 1.2 8.646 1.2 6C1.2 3.354 3.354 1.2 6 1.2C8.646 1.2 10.8 3.354 10.8 6C10.8 8.646 8.646 10.8 6 10.8ZM5.4 8.4H6.6V9.6H5.4V8.4ZM6.366 2.424C5.13 2.244 4.038 3.006 3.708 4.098C3.6 4.446 3.864 4.8 4.23 4.8H4.35C4.596 4.8 4.794 4.626 4.878 4.398C5.07 3.864 5.64 3.498 6.258 3.63C6.828 3.75 7.248 4.308 7.2 4.89C7.14 5.694 6.228 5.868 5.73 6.618C5.73 6.624 5.724 6.624 5.724 6.63C5.718 6.642 5.712 6.648 5.706 6.66C5.652 6.75 5.598 6.852 5.556 6.96C5.55 6.978 5.538 6.99 5.532 7.008C5.526 7.02 5.526 7.032 5.52 7.05C5.448 7.254 5.4 7.5 5.4 7.8H6.6C6.6 7.548 6.666 7.338 6.768 7.158C6.78 7.14 6.786 7.122 6.798 7.104C6.846 7.02 6.906 6.942 6.966 6.87C6.972 6.864 6.978 6.852 6.984 6.846C7.044 6.774 7.11 6.708 7.182 6.642C7.758 6.096 8.538 5.652 8.376 4.506C8.232 3.462 7.41 2.58 6.366 2.424Z" fill="#263238"/>
</svg>
