<svg width="22" height="20" viewBox="0 0 22 20" fill="none" xmlns="http://www.w3.org/2000/svg">
<path d="M0.456221 9.83945L9.83274 0.818743L10.4612 0.213781C10.6044 0.0768506 10.7981 0 11 0C11.2018 0 11.3955 0.0768506 11.5387 0.213781L21.5437 9.83945C21.6904 9.98014 21.8064 10.1477 21.8848 10.3322C21.9631 10.5168 22.0023 10.7146 21.9999 10.9139C21.9902 11.7361 21.2792 12.3924 20.425 12.3924H19.3937V20H2.60622V12.3924H1.55306C1.13811 12.3924 0.747417 12.2359 0.453794 11.9533C0.309216 11.8146 0.194662 11.6496 0.11677 11.468C0.0388775 11.2864 -0.000808716 11.0917 1.33514e-05 10.8952C1.33514e-05 10.4981 0.162598 10.1221 0.456221 9.83945ZM9.64104 18.3183H12.3589V13.5533H9.64104V18.3183ZM4.3534 10.7107V18.3183H8.08799V12.9927C8.08799 12.4765 8.52236 12.0584 9.05865 12.0584H12.9413C13.4776 12.0584 13.9119 12.4765 13.9119 12.9927V18.3183H17.6465V10.7107H19.9761L10.9975 2.07538L10.437 2.61494L2.0214 10.7107H4.3534Z" fill="url(#paint0_linear_1_76)"/>
<defs>
<linearGradient id="paint0_linear_1_76" x1="0" y1="0" x2="16" y2="20" gradientUnits="userSpaceOnUse">
<stop stop-color="#FC4A1A"/>
<stop offset="1" stop-color="#F7B733"/>
</linearGradient>
</defs>
</svg>
