<svg width="13" height="16" viewBox="0 0 13 16" fill="none" xmlns="http://www.w3.org/2000/svg">
<path d="M6.50023 10C6.9534 10 7.39639 9.87598 7.77318 9.64358C8.14998 9.41118 8.44365 9.08086 8.61707 8.6944C8.79049 8.30793 8.83587 7.88267 8.74746 7.4724C8.65905 7.06213 8.44083 6.68528 8.12039 6.38949C7.79996 6.0937 7.39169 5.89227 6.94723 5.81066C6.50278 5.72905 6.04208 5.77094 5.62341 5.93102C5.20474 6.09109 4.8469 6.36218 4.59513 6.70999C4.34336 7.0578 4.20898 7.46671 4.20898 7.88502C4.20898 8.44595 4.45038 8.98391 4.88008 9.38055C5.30977 9.77719 5.89256 10 6.50023 10ZM6.50023 6.57002C6.78199 6.57002 7.05742 6.64714 7.29169 6.79164C7.52596 6.93613 7.70855 7.14151 7.81638 7.38179C7.9242 7.62208 7.95241 7.88648 7.89744 8.14156C7.84248 8.39665 7.7068 8.63096 7.50757 8.81487C7.30834 8.99877 7.0545 9.12401 6.77816 9.17475C6.50181 9.22549 6.21538 9.19945 5.95507 9.09992C5.69476 9.00039 5.47227 8.83185 5.31574 8.6156C5.1592 8.39934 5.07565 8.1451 5.07565 7.88502C5.07565 7.53626 5.22574 7.20179 5.4929 6.95517C5.76006 6.70856 6.12241 6.57002 6.50023 6.57002Z" fill="#263238"/>
<path d="M8.66536 1C8.66536 0.734784 8.55123 0.48043 8.34806 0.292893C8.1449 0.105357 7.86935 0 7.58203 0H5.41536C5.12805 0 4.8525 0.105357 4.64933 0.292893C4.44617 0.48043 4.33203 0.734784 4.33203 1V4.5H8.66536V1ZM7.58203 3.5H5.41536V1H7.58203V3.5Z" fill="#263238"/>
<path d="M10.8347 14V12.85C10.8363 12.7167 10.7863 12.5873 10.6938 12.485C10.1682 11.9444 9.52007 11.5173 8.79551 11.2338C8.07095 10.9504 7.2877 10.8177 6.50132 10.845C5.71369 10.8195 4.92965 10.9546 4.20501 11.2407C3.48038 11.5267 2.83295 11.9567 2.30882 12.5C2.21674 12.6025 2.16686 12.7318 2.16799 12.865V14H3.03465V12.935C3.47909 12.5038 4.01848 12.1656 4.61648 11.9431C5.21447 11.7205 5.85718 11.6189 6.50132 11.645C7.14586 11.6195 7.78883 11.722 8.38684 11.9454C8.98486 12.1688 9.52403 12.5079 9.96799 12.94V14H10.8347Z" fill="#263238"/>
<path d="M11.9167 2H9.75V3H11.9167V15H1.08333V3H3.25V2H1.08333C0.796016 2 0.520465 2.10536 0.317301 2.29289C0.114137 2.48043 0 2.73478 0 3V15C0 15.2652 0.114137 15.5196 0.317301 15.7071C0.520465 15.8946 0.796016 16 1.08333 16H11.9167C12.204 16 12.4795 15.8946 12.6827 15.7071C12.8859 15.5196 13 15.2652 13 15V3C13 2.73478 12.8859 2.48043 12.6827 2.29289C12.4795 2.10536 12.204 2 11.9167 2Z" fill="#263238"/>
</svg>
