<svg width="12" height="15" viewBox="0 0 12 15" fill="none" xmlns="http://www.w3.org/2000/svg">
<path d="M2.4 12.5769C2.49369 12.6533 2.60901 12.6939 2.72727 12.6923C2.81195 12.6923 2.89547 12.6715 2.97121 12.6314C3.04695 12.5913 3.11283 12.5332 3.16364 12.4615C3.49389 11.9958 3.92212 11.6178 4.41442 11.3574C4.90673 11.0971 5.44959 10.9615 6 10.9615C6.55041 10.9615 7.09327 11.0971 7.58558 11.3574C8.07788 11.6178 8.50612 11.9958 8.83636 12.4615C8.92425 12.5824 9.0533 12.6621 9.19598 12.6836C9.33866 12.7052 9.48365 12.6669 9.6 12.5769C9.6573 12.5315 9.70558 12.4745 9.74208 12.4093C9.77857 12.3441 9.80257 12.272 9.8127 12.197C9.82283 12.122 9.81889 12.0456 9.80112 11.9722C9.78334 11.8988 9.75207 11.8298 9.70909 11.7692C9.22637 11.0839 8.58224 10.5443 7.84091 10.2043C8.24651 9.81185 8.5305 9.2989 8.65566 8.73272C8.78081 8.16654 8.74127 7.57358 8.54224 7.03159C8.3432 6.48959 7.99395 6.02387 7.54029 5.69549C7.08663 5.3671 6.54973 5.19139 6 5.19139C5.45027 5.19139 4.91337 5.3671 4.45971 5.69549C4.00605 6.02387 3.6568 6.48959 3.45777 7.03159C3.25873 7.57358 3.21919 8.16654 3.34434 8.73272C3.4695 9.2989 3.75349 9.81185 4.15909 10.2043C3.41776 10.5443 2.77363 11.0839 2.29091 11.7692C2.20411 11.8916 2.16684 12.0455 2.1873 12.197C2.20776 12.3484 2.28427 12.4851 2.4 12.5769ZM6 6.34615C6.32364 6.34615 6.64002 6.44766 6.90911 6.63784C7.17821 6.82802 7.38795 7.09833 7.5118 7.41459C7.63566 7.73084 7.66806 8.07884 7.60492 8.41458C7.54178 8.75032 7.38593 9.05871 7.15708 9.30076C6.92823 9.54281 6.63666 9.70765 6.31924 9.77444C6.00182 9.84122 5.6728 9.80694 5.37379 9.67595C5.07478 9.54495 4.81922 9.32311 4.63941 9.03849C4.45961 8.75386 4.36364 8.41924 4.36364 8.07692C4.36543 7.61848 4.53841 7.17935 4.8449 6.85518C5.15139 6.53101 5.56656 6.34805 6 6.34615ZM10.9091 0H1.09091C0.801582 0 0.524105 0.121566 0.31952 0.337954C0.114935 0.554342 0 0.847827 0 1.15385V13.8462C0 14.1522 0.114935 14.4457 0.31952 14.662C0.524105 14.8784 0.801582 15 1.09091 15H10.9091C11.1984 15 11.4759 14.8784 11.6805 14.662C11.8851 14.4457 12 14.1522 12 13.8462V1.15385C12 0.847827 11.8851 0.554342 11.6805 0.337954C11.4759 0.121566 11.1984 0 10.9091 0ZM10.9091 13.8462H1.09091V1.15385H10.9091V13.8462ZM3.27273 2.88462C3.27273 2.73161 3.33019 2.58486 3.43249 2.47667C3.53478 2.36848 3.67352 2.30769 3.81818 2.30769H8.18182C8.32648 2.30769 8.46522 2.36848 8.56751 2.47667C8.66981 2.58486 8.72727 2.73161 8.72727 2.88462C8.72727 3.03762 8.66981 3.18437 8.56751 3.29256C8.46522 3.40076 8.32648 3.46154 8.18182 3.46154H3.81818C3.67352 3.46154 3.53478 3.40076 3.43249 3.29256C3.33019 3.18437 3.27273 3.03762 3.27273 2.88462Z" fill="#263238"/>
</svg>
