<svg width="14" height="16" viewBox="0 0 14 16" fill="none" xmlns="http://www.w3.org/2000/svg">
<path d="M9.50001 8.25407V13.625C9.50001 14.3844 8.9047 15 8.15782 15H2.34375C1.59531 15 1 14.3844 1 13.625V5.375C1.00213 5.01099 1.14768 4.66249 1.40508 4.40508C1.66249 4.14768 2.01099 4.00213 2.375 4H5.31626C5.41806 4.00015 5.51882 4.02057 5.61266 4.06006C5.70649 4.09955 5.79153 4.15732 5.86282 4.23L9.27376 7.69875C9.41888 7.84716 9.5001 8.0465 9.50001 8.25407V8.25407Z" stroke="#263238" stroke-linejoin="round"/>
<path d="M5.25 4V7.375C5.25276 7.60621 5.34583 7.82717 5.50933 7.99067C5.67283 8.15418 5.89379 8.24725 6.125 8.25001H9.50001" stroke="#263238" stroke-linecap="round" stroke-linejoin="round"/>
<path d="M4.5 4V2.375C4.50213 2.01099 4.64768 1.66249 4.90508 1.40508C5.16249 1.14768 5.51099 1.00213 5.875 1H8.81251C8.91487 1.00014 9.0162 1.02054 9.11064 1.06001C9.20509 1.09949 9.2908 1.15726 9.36282 1.23L12.7738 4.69875C12.9188 4.84557 13.0001 5.04364 13 5.25001V10.625C13 11.3844 12.4047 12 11.6578 12H9.75001" stroke="#263238" stroke-linejoin="round"/>
<path d="M8.75 1V4.375C8.75276 4.60621 8.84583 4.82717 9.00933 4.99067C9.17283 5.15418 9.39379 5.24725 9.625 5.25001H13" stroke="#263238" stroke-linecap="round" stroke-linejoin="round"/>
</svg>
