<svg width="12" height="14" viewBox="0 0 12 14" fill="none" xmlns="http://www.w3.org/2000/svg">
<path d="M6 7.875C7.03553 7.875 7.875 7.03553 7.875 6C7.875 4.96447 7.03553 4.125 6 4.125C4.96447 4.125 4.125 4.96447 4.125 6C4.125 7.03553 4.96447 7.875 6 7.875Z" stroke="#263238" stroke-linecap="round" stroke-linejoin="round"/>
<path d="M6 1C4.67392 1 3.40215 1.52678 2.46447 2.46447C1.52678 3.40215 1 4.67392 1 6C1 7.1825 1.25125 7.95625 1.9375 8.8125L6 13.5L10.0625 8.8125C10.7488 7.95625 11 7.1825 11 6C11 4.67392 10.4732 3.40215 9.53553 2.46447C8.59785 1.52678 7.32608 1 6 1V1Z" stroke="#263238" stroke-linecap="round" stroke-linejoin="round"/>
</svg>
