<svg width="10" height="10" viewBox="0 0 10 10" fill="none" xmlns="http://www.w3.org/2000/svg">
<path d="M4.3 0V1.3166C2.7944 1.603 1.603 2.7944 1.3166 4.3H0V5.7H1.3166C1.603 7.2056 2.7944 8.397 4.3 8.6834V10H5.7V8.6834C7.2056 8.397 8.397 7.2056 8.6834 5.7H10V4.3H8.6834C8.397 2.7944 7.2056 1.603 5.7 1.3166V0H4.3ZM5 2.25C5.36141 2.24901 5.71946 2.31947 6.05355 2.45732C6.38764 2.59517 6.69119 2.79769 6.94675 3.05325C7.20231 3.30881 7.40484 3.61236 7.54269 3.94645C7.68053 4.28054 7.75099 4.63859 7.75 5C7.75099 5.36141 7.68053 5.71946 7.54269 6.05355C7.40484 6.38764 7.20231 6.69119 6.94675 6.94675C6.69119 7.20231 6.38764 7.40484 6.05355 7.54269C5.71946 7.68053 5.36141 7.75099 5 7.75C4.63859 7.75099 4.28054 7.68053 3.94645 7.54269C3.61236 7.40484 3.30881 7.20231 3.05325 6.94675C2.79769 6.69119 2.59517 6.38764 2.45732 6.05355C2.31947 5.71946 2.24901 5.36141 2.25 5C2.24901 4.63859 2.31947 4.28054 2.45732 3.94645C2.59517 3.61236 2.79769 3.30881 3.05325 3.05325C3.30881 2.79769 3.61236 2.59517 3.94645 2.45732C4.28054 2.31947 4.63859 2.24901 5 2.25Z" fill="#263238"/>
</svg>
