<svg width="12" height="18" viewBox="0 0 12 18" fill="none" xmlns="http://www.w3.org/2000/svg">
<path d="M9.125 1H2.875C1.83947 1 1 1.71634 1 2.6V15.4C1 16.2837 1.83947 17 2.875 17H9.125C10.1605 17 11 16.2837 11 15.4V2.6C11 1.71634 10.1605 1 9.125 1Z" stroke="black" stroke-linecap="round" stroke-linejoin="round"/>
<path d="M2.875 1H3.8125C3.89538 1 3.97487 1.0281 4.03347 1.0781C4.09208 1.12811 4.125 1.19594 4.125 1.26667C4.125 1.40812 4.19085 1.54377 4.30806 1.64379C4.42527 1.74381 4.58424 1.8 4.75 1.8H7.25C7.41576 1.8 7.57473 1.74381 7.69194 1.64379C7.80915 1.54377 7.875 1.40812 7.875 1.26667C7.875 1.19594 7.90792 1.12811 7.96653 1.0781C8.02513 1.0281 8.10462 1 8.1875 1H9.125" stroke="black" stroke-linecap="round" stroke-linejoin="round"/>
</svg>
