<svg width="14" height="10" viewBox="0 0 14 10" fill="none" xmlns="http://www.w3.org/2000/svg">
<path d="M9.5 7C9.36739 7 9.24021 7.05268 9.14645 7.14645C9.05268 7.24021 9 7.36739 9 7.5C9 7.63261 9.05268 7.75979 9.14645 7.85355C9.24021 7.94732 9.36739 8 9.5 8H11.5C11.6326 8 11.7598 7.94732 11.8536 7.85355C11.9473 7.75979 12 7.63261 12 7.5C12 7.36739 11.9473 7.24021 11.8536 7.14645C11.7598 7.05268 11.6326 7 11.5 7H9.5ZM0 2.5C0 1.83696 0.263392 1.20107 0.732233 0.732233C1.20107 0.263392 1.83696 0 2.5 0H11.5C12.163 0 12.7989 0.263392 13.2678 0.732233C13.7366 1.20107 14 1.83696 14 2.5V7.5C14 8.16304 13.7366 8.79893 13.2678 9.26777C12.7989 9.73661 12.163 10 11.5 10H2.5C1.83696 10 1.20107 9.73661 0.732233 9.26777C0.263392 8.79893 0 8.16304 0 7.5V2.5ZM13 3V2.5C13 2.10218 12.842 1.72064 12.5607 1.43934C12.2794 1.15804 11.8978 1 11.5 1H2.5C2.10218 1 1.72064 1.15804 1.43934 1.43934C1.15804 1.72064 1 2.10218 1 2.5V3H13ZM1 4V7.5C1 7.89782 1.15804 8.27936 1.43934 8.56066C1.72064 8.84196 2.10218 9 2.5 9H11.5C11.8978 9 12.2794 8.84196 12.5607 8.56066C12.842 8.27936 13 7.89782 13 7.5V4H1Z" fill="#263238"/>
</svg>
