<svg width="16" height="21" viewBox="0 0 16 21" fill="none" xmlns="http://www.w3.org/2000/svg">
<path d="M1 16.3125H1.5625V8.34375C1.5625 5.03672 4.00703 2.30391 7.1875 1.84922V0.9375C7.1875 0.419531 7.60703 0 8.125 0C8.64297 0 9.0625 0.419531 9.0625 0.9375V1.84922C12.243 2.30391 14.6875 5.03672 14.6875 8.34375V16.3125H15.25C15.6648 16.3125 16 16.6477 16 17.0625V17.8125C16 17.9156 15.9156 18 15.8125 18H10.75C10.75 19.4484 9.57344 20.625 8.125 20.625C6.67656 20.625 5.5 19.4484 5.5 18H0.4375C0.334375 18 0.25 17.9156 0.25 17.8125V17.0625C0.25 16.6477 0.585156 16.3125 1 16.3125ZM8.125 19.125C8.74609 19.125 9.25 18.6211 9.25 18H7C7 18.6211 7.50391 19.125 8.125 19.125ZM13 16.3125V8.34375C13 7.04063 12.4938 5.81719 11.5727 4.89609C10.6516 3.975 9.42812 3.46875 8.125 3.46875C6.82187 3.46875 5.59844 3.975 4.67734 4.89609C3.75625 5.81719 3.25 7.04063 3.25 8.34375V16.3125H13Z" fill="#263238"/>
</svg>
