<svg width="14" height="12" viewBox="0 0 14 12" fill="none" xmlns="http://www.w3.org/2000/svg">
<path d="M13.3753 4.4571H9.45326C9.38585 4.4571 9.3307 4.51226 9.3307 4.57967V5.31504C9.3307 5.38245 9.38585 5.4376 9.45326 5.4376H13.3753C13.4427 5.4376 13.4978 5.38245 13.4978 5.31504V4.57967C13.4978 4.51226 13.4427 4.4571 13.3753 4.4571ZM11.3223 6.54066H9.45326C9.38585 6.54066 9.3307 6.59582 9.3307 6.66323V7.3986C9.3307 7.46601 9.38585 7.52116 9.45326 7.52116H11.3223C11.3897 7.52116 11.4449 7.46601 11.4449 7.3986V6.66323C11.4449 6.59582 11.3897 6.54066 11.3223 6.54066ZM6.20996 3.08594H5.54659C5.4516 3.08594 5.375 3.16254 5.375 3.25753V7.05696C5.375 7.11211 5.40104 7.16267 5.44547 7.19484L7.72667 8.85863C7.80327 8.91378 7.91051 8.89846 7.96566 8.82186L8.35939 8.28411V8.28258C8.41455 8.20598 8.39769 8.09874 8.32109 8.04359L6.38001 6.64025V3.25753C6.38154 3.16254 6.30341 3.08594 6.20996 3.08594Z" fill="#263238"/>
<path d="M11.2267 8.46953H10.3412C10.2554 8.46953 10.1742 8.51396 10.1283 8.58749C9.93369 8.89543 9.70695 9.18039 9.44651 9.44083C8.99762 9.88972 8.4752 10.2421 7.89456 10.4872C7.29247 10.7415 6.65362 10.8702 5.99484 10.8702C5.33454 10.8702 4.69568 10.7415 4.09513 10.4872C3.51449 10.2421 2.99206 9.88972 2.54318 9.44083C2.0943 8.99195 1.74193 8.46953 1.4968 7.88889C1.24249 7.28833 1.1138 6.64948 1.1138 5.98917C1.1138 5.32887 1.24249 4.69154 1.4968 4.08946C1.74193 3.50882 2.0943 2.98639 2.54318 2.53751C2.99206 2.08862 3.51449 1.73626 4.09513 1.49113C4.69568 1.23682 5.33607 1.10812 5.99484 1.10812C6.65515 1.10812 7.294 1.23682 7.89456 1.49113C8.4752 1.73626 8.99762 2.08862 9.44651 2.53751C9.70695 2.79795 9.93369 3.08291 10.1283 3.39085C10.1742 3.46439 10.2554 3.50882 10.3412 3.50882H11.2267C11.3324 3.50882 11.3998 3.39851 11.3524 3.30506C10.3535 1.31801 8.32812 0.0265118 6.06685 0.000467309C2.75613 -0.0408975 0.00613859 2.66926 1.04665e-05 5.97692C-0.00611765 9.2907 2.67953 11.9794 5.99331 11.9794C8.2837 11.9794 10.3427 10.6833 11.3524 8.67329C11.3998 8.57983 11.3309 8.46953 11.2267 8.46953Z" fill="#263238"/>
</svg>
