<svg width="13" height="12" viewBox="0 0 13 12" fill="none" xmlns="http://www.w3.org/2000/svg">
<path d="M3.82353 0C3.4179 0 3.02889 0.158035 2.74207 0.43934C2.45525 0.720644 2.29412 1.10218 2.29412 1.5V6.75H3.05882V1.5C3.05882 1.30109 3.13939 1.11032 3.2828 0.96967C3.42621 0.829018 3.62072 0.75 3.82353 0.75H9.17647C9.37928 0.75 9.57379 0.829018 9.7172 0.96967C9.86061 1.11032 9.94118 1.30109 9.94118 1.5V9.75H7.64706V10.5H10.7059C11.3143 10.5 11.8978 10.2629 12.3281 9.84099C12.7583 9.41903 13 8.84674 13 8.25V6.75H10.7059V1.5C10.7059 1.10218 10.5447 0.720644 10.2579 0.43934C9.97111 0.158035 9.5821 0 9.17647 0H3.82353ZM12.2353 8.25C12.2353 8.64782 12.0742 9.02936 11.7873 9.31066C11.5005 9.59196 11.1115 9.75 10.7059 9.75V7.5H12.2353V8.25ZM4.97059 2.25C4.86918 2.25 4.77193 2.28951 4.70022 2.35984C4.62852 2.43016 4.58824 2.52554 4.58824 2.625C4.58824 2.72446 4.62852 2.81984 4.70022 2.89016C4.77193 2.96049 4.86918 3 4.97059 3H8.02941C8.13082 3 8.22807 2.96049 8.29978 2.89016C8.37148 2.81984 8.41177 2.72446 8.41177 2.625C8.41177 2.52554 8.37148 2.43016 8.29978 2.35984C8.22807 2.28951 8.13082 2.25 8.02941 2.25H4.97059ZM4.58824 4.125C4.58824 4.02554 4.62852 3.93016 4.70022 3.85984C4.77193 3.78951 4.86918 3.75 4.97059 3.75H8.02941C8.13082 3.75 8.22807 3.78951 8.29978 3.85984C8.37148 3.93016 8.41177 4.02554 8.41177 4.125C8.41177 4.22446 8.37148 4.31984 8.29978 4.39016C8.22807 4.46049 8.13082 4.5 8.02941 4.5H4.97059C4.86918 4.5 4.77193 4.46049 4.70022 4.39016C4.62852 4.31984 4.58824 4.22446 4.58824 4.125ZM5.73529 7.5C6.03951 7.5 6.33127 7.61853 6.54639 7.8295C6.7615 8.04048 6.88235 8.32663 6.88235 8.625V10.875C6.88235 11.1734 6.7615 11.4595 6.54639 11.6705C6.33127 11.8815 6.03951 12 5.73529 12H1.14706C0.84284 12 0.551081 11.8815 0.335966 11.6705C0.120851 11.4595 0 11.1734 0 10.875V8.625C0 8.32663 0.120851 8.04048 0.335966 7.8295C0.551081 7.61853 0.84284 7.5 1.14706 7.5H5.73529ZM6.11765 10.875V10.125C5.81343 10.125 5.52167 10.2435 5.30655 10.4545C5.09144 10.6655 4.97059 10.9516 4.97059 11.25H5.73529C5.73529 11.1505 5.77558 11.0552 5.84728 10.9848C5.91899 10.9145 6.01624 10.875 6.11765 10.875ZM6.11765 8.625C6.01624 8.625 5.91899 8.58549 5.84728 8.51517C5.77558 8.44484 5.73529 8.34946 5.73529 8.25H4.97059C4.97059 8.54837 5.09144 8.83452 5.30655 9.0455C5.52167 9.25647 5.81343 9.375 6.11765 9.375V8.625ZM1.14706 8.25C1.14706 8.34946 1.10678 8.44484 1.03507 8.51517C0.963365 8.58549 0.866112 8.625 0.764706 8.625V9.375C1.06892 9.375 1.36068 9.25647 1.5758 9.0455C1.79091 8.83452 1.91176 8.54837 1.91176 8.25H1.14706ZM0.764706 10.875C0.866112 10.875 0.963365 10.9145 1.03507 10.9848C1.10678 11.0552 1.14706 11.1505 1.14706 11.25H1.91176C1.91176 10.9516 1.79091 10.6655 1.5758 10.4545C1.36068 10.2435 1.06892 10.125 0.764706 10.125V10.875ZM3.44118 8.625C3.13696 8.625 2.8452 8.74353 2.63008 8.9545C2.41497 9.16548 2.29412 9.45163 2.29412 9.75C2.29412 10.0484 2.41497 10.3345 2.63008 10.5455C2.8452 10.7565 3.13696 10.875 3.44118 10.875C3.7454 10.875 4.03715 10.7565 4.25227 10.5455C4.46738 10.3345 4.58824 10.0484 4.58824 9.75C4.58824 9.45163 4.46738 9.16548 4.25227 8.9545C4.03715 8.74353 3.7454 8.625 3.44118 8.625Z" fill="#263238"/>
</svg>
