<svg width="14" height="8" viewBox="0 0 14 8" fill="none" xmlns="http://www.w3.org/2000/svg">
<path d="M1.27273 6.63611H12.7273C13.0773 6.63611 13.3636 6.94298 13.3636 7.31805C13.3636 7.69312 13.0773 8 12.7273 8H1.27273C0.922727 8 0.636364 7.69312 0.636364 7.31805C0.636364 6.94298 0.922727 6.63611 1.27273 6.63611ZM0.954545 3.61508C1.18364 3.75829 1.47636 3.66964 1.61 3.42414L1.90909 2.86494L2.21455 3.43096C2.34818 3.67646 2.64091 3.75829 2.87 3.6219C3.09909 3.47869 3.17545 3.17182 3.04818 2.92632L2.73636 2.35348H3.34091C3.60182 2.35348 3.81818 2.12162 3.81818 1.84202C3.81818 1.56242 3.60182 1.33056 3.34091 1.33056H2.73636L3.03545 0.771365C3.16909 0.525864 3.09273 0.212169 2.86364 0.0689603C2.75274 0.00280928 2.62211 -0.014249 2.49963 0.0214294C2.37716 0.0571078 2.27256 0.142694 2.20818 0.259905L1.90909 0.819102L1.61 0.259905C1.54562 0.142694 1.44102 0.0571078 1.31855 0.0214294C1.19608 -0.014249 1.06544 0.00280928 0.954545 0.0689603C0.725455 0.212169 0.649091 0.525864 0.782727 0.771365L1.08182 1.33056H0.477273C0.216364 1.33056 0 1.56242 0 1.84202C0 2.12162 0.216364 2.35348 0.477273 2.35348H1.08182L0.776364 2.9195C0.649091 3.165 0.725455 3.47869 0.954545 3.61508ZM6.04545 3.61508C6.27455 3.75829 6.56727 3.66964 6.70091 3.42414L7 2.86494L7.30545 3.43096C7.43909 3.67646 7.73182 3.75829 7.96091 3.6219C8.19 3.47869 8.26636 3.17182 8.13909 2.92632L7.83364 2.3603H8.43818C8.69909 2.3603 8.91545 2.12844 8.91545 1.84884C8.91545 1.56924 8.69909 1.33738 8.43818 1.33738H7.82727L8.12636 0.778185C8.1893 0.660325 8.20656 0.520703 8.17443 0.389347C8.1423 0.257992 8.06334 0.145397 7.95455 0.0757799C7.90065 0.0421888 7.8411 0.0203052 7.77931 0.0113791C7.71751 0.00245306 7.65468 0.00665944 7.59441 0.0237577C7.53413 0.0408559 7.47759 0.0705111 7.42801 0.11103C7.37843 0.151548 7.33679 0.202137 7.30545 0.259905L7 0.819102L6.70091 0.259905C6.66982 0.201868 6.6283 0.151014 6.57875 0.11029C6.52919 0.0695657 6.47259 0.039779 6.41223 0.0226547C6.35186 0.0055303 6.28892 0.00140852 6.22706 0.0105275C6.16519 0.0196465 6.10563 0.0418252 6.05182 0.0757799C5.82273 0.218989 5.74636 0.532684 5.88 0.778185L6.17909 1.33738H5.56818C5.50581 1.33648 5.44389 1.34886 5.38602 1.37382C5.32815 1.39878 5.27548 1.4358 5.23108 1.48275C5.18667 1.5297 5.15142 1.58564 5.12735 1.64732C5.10329 1.70899 5.0909 1.77517 5.09091 1.84202C5.09091 2.12162 5.30727 2.35348 5.56818 2.35348H6.17273L5.86727 2.9195C5.74 3.165 5.81636 3.47869 6.04545 3.61508ZM14 1.84202C14 1.56242 13.7836 1.33056 13.5227 1.33056H12.9182L13.2173 0.771365C13.2802 0.653505 13.2975 0.513883 13.2653 0.382528C13.2332 0.251173 13.1543 0.138578 13.0455 0.0689603C12.9916 0.0353692 12.932 0.0134859 12.8702 0.00455983C12.8084 -0.00436623 12.7456 -0.000160182 12.6853 0.016938C12.625 0.0340363 12.5685 0.0636915 12.5189 0.10421C12.4693 0.144729 12.4277 0.195317 12.3964 0.253086L12.0909 0.819102L11.7918 0.259905C11.7607 0.201868 11.7192 0.151014 11.6697 0.11029C11.6201 0.0695657 11.5635 0.039779 11.5031 0.0226547C11.4428 0.0055303 11.3798 0.00140852 11.318 0.0105275C11.2561 0.0196465 11.1965 0.0418252 11.1427 0.0757799C10.9136 0.218989 10.8373 0.532684 10.9709 0.778185L11.27 1.33738H10.6655C10.6026 1.33584 10.5401 1.34774 10.4816 1.37238C10.4231 1.39703 10.3698 1.43392 10.3248 1.48091C10.2798 1.5279 10.2439 1.58403 10.2194 1.64604C10.1948 1.70804 10.1821 1.77467 10.1818 1.84202C10.1818 2.12162 10.3982 2.35348 10.6591 2.35348H11.2636L10.9582 2.9195C10.9266 2.97752 10.9061 3.04173 10.898 3.10835C10.8898 3.17496 10.8942 3.24265 10.9108 3.30744C10.9274 3.37223 10.9559 3.43281 10.9946 3.48564C11.0334 3.53847 11.0815 3.58248 11.1364 3.61508C11.3655 3.75829 11.6582 3.66964 11.7918 3.42414L12.0909 2.86494L12.3964 3.43096C12.53 3.67646 12.8227 3.75829 13.0518 3.6219C13.2809 3.47869 13.3573 3.17182 13.23 2.92632L12.9245 2.3603H13.5291C13.7836 2.35348 14 2.12162 14 1.84202Z" fill="#263238"/>
</svg>
