<svg width="13" height="14" viewBox="0 0 13 14" fill="none" xmlns="http://www.w3.org/2000/svg">
<path d="M6.50186 0.561642C6.61135 0.413724 6.75201 0.288656 6.91507 0.19424C7.07813 0.0998249 7.26009 0.0380883 7.4496 0.0128826C7.6391 -0.0123231 7.83209 -0.000457082 8.01651 0.0477404C8.20094 0.095938 8.37284 0.179433 8.5215 0.293015L11.5579 2.61616C11.8292 2.82362 12.0079 3.11959 12.0585 3.44537C12.109 3.77114 12.0278 4.10293 11.8309 4.37492H10.6981L11.0602 3.88579C11.1276 3.79519 11.1561 3.68389 11.1399 3.57429C11.1237 3.4647 11.064 3.36496 10.9729 3.29516L9.40921 2.0999L7.7415 4.37492H6.61143L8.68586 1.5469L7.93557 0.972895C7.88604 0.93502 7.82875 0.907169 7.76729 0.891081C7.70583 0.874992 7.64151 0.871011 7.57834 0.879385C7.51517 0.887759 7.45451 0.90831 7.40015 0.939754C7.34578 0.971198 7.29888 1.01286 7.26236 1.06215L4.81 4.37405H3.67714L6.50186 0.561642ZM9.75 9.62496C9.62686 9.62496 9.50877 9.67106 9.4217 9.75311C9.33463 9.83515 9.28571 9.94643 9.28571 10.0625C9.28571 10.1785 9.33463 10.2898 9.4217 10.3718C9.50877 10.4539 9.62686 10.5 9.75 10.5H10.6786C10.8017 10.5 10.9198 10.4539 11.0069 10.3718C11.0939 10.2898 11.1429 10.1785 11.1429 10.0625C11.1429 9.94643 11.0939 9.83515 11.0069 9.75311C10.9198 9.67106 10.8017 9.62496 10.6786 9.62496H9.75ZM1.39286 3.49992H3.40693L2.75693 4.37492H1.39286C1.26972 4.37492 1.15163 4.42102 1.06456 4.50306C0.977487 4.58511 0.928571 4.69639 0.928571 4.81243C0.928571 4.92846 0.977487 5.03974 1.06456 5.12179C1.15163 5.20384 1.26972 5.24993 1.39286 5.24993H11.1429C11.6354 5.24993 12.1078 5.43431 12.4561 5.7625C12.8043 6.09069 13 6.53581 13 6.99994V12.25C13 12.7141 12.8043 13.1592 12.4561 13.4874C12.1078 13.8156 11.6354 14 11.1429 14H2.32143C1.70575 14 1.11528 13.7695 0.679931 13.3593C0.244578 12.9491 0 12.3926 0 11.8125V4.81243C0 4.46433 0.146747 4.13048 0.407958 3.88434C0.66917 3.6382 1.02345 3.49992 1.39286 3.49992ZM0.928571 11.8125C0.928571 12.1606 1.07532 12.4944 1.33653 12.7406C1.59774 12.9867 1.95202 13.125 2.32143 13.125H11.1429C11.3891 13.125 11.6253 13.0328 11.7995 12.8687C11.9736 12.7046 12.0714 12.4821 12.0714 12.25V6.99994C12.0714 6.76788 11.9736 6.54532 11.7995 6.38122C11.6253 6.21712 11.3891 6.12494 11.1429 6.12494H1.39286C1.23036 6.12494 1.07343 6.09869 0.928571 6.05056V11.8125Z" fill="#263238"/>
</svg>
