<svg width="12" height="12" viewBox="0 0 12 12" fill="none" xmlns="http://www.w3.org/2000/svg">
<path d="M10.8534 6.32664V5.66906L11.7009 4.94702C11.8571 4.81295 11.9597 4.62942 11.9904 4.42887C12.0211 4.22832 11.9779 4.02366 11.8686 3.85106L10.8269 2.13191C10.7495 2.00136 10.6382 1.89294 10.5041 1.8175C10.3701 1.74206 10.218 1.70227 10.0632 1.70212C9.96728 1.7014 9.87186 1.71592 9.78071 1.7451L8.70805 2.09752C8.52285 1.9777 8.32967 1.87002 8.12978 1.77518L7.90466 0.692117C7.86429 0.494244 7.75373 0.316499 7.59233 0.189996C7.43093 0.0634933 7.22897 -0.00370743 7.02181 0.000157917H4.95594C4.74878 -0.00370743 4.54682 0.0634933 4.38542 0.189996C4.22402 0.316499 4.11346 0.494244 4.0731 0.692117L3.84797 1.77518C3.64665 1.86999 3.452 1.97768 3.26529 2.09752L2.2147 1.72791C2.12257 1.70454 2.02717 1.69583 1.93219 1.70212C1.77737 1.70227 1.62531 1.74206 1.49128 1.8175C1.35724 1.89294 1.24593 2.00136 1.16852 2.13191L0.126762 3.85106C0.0237281 4.0234 -0.0145589 4.22526 0.0184585 4.42206C0.051476 4.61886 0.153744 4.79837 0.307746 4.92983L1.14204 5.67336V6.33094L0.307746 7.05298C0.149394 7.18536 0.0443287 7.36807 0.0111968 7.5687C-0.0219351 7.76934 0.0190088 7.97491 0.126762 8.14894L1.16852 9.86809C1.24593 9.99864 1.35724 10.1071 1.49128 10.1825C1.62531 10.2579 1.77737 10.2977 1.93219 10.2979C2.02813 10.2986 2.12355 10.2841 2.2147 10.2549L3.28736 9.90248C3.47256 10.0223 3.66574 10.13 3.86563 10.2248L4.09075 11.3079C4.13112 11.5058 4.24168 11.6835 4.40308 11.81C4.56448 11.9365 4.76644 12.0037 4.9736 11.9998H7.05712C7.26429 12.0037 7.46624 11.9365 7.62764 11.81C7.78905 11.6835 7.89961 11.5058 7.93997 11.3079L8.1651 10.2248C8.36642 10.13 8.56107 10.0223 8.74778 9.90248L9.81602 10.2549C9.90717 10.2841 10.0026 10.2986 10.0985 10.2979C10.2534 10.2977 10.4054 10.2579 10.5394 10.1825C10.6735 10.1071 10.7848 9.99864 10.8622 9.86809L11.8686 8.14894C11.9717 7.9766 12.01 7.77474 11.977 7.57794C11.9439 7.38114 11.8417 7.20163 11.6877 7.07017L10.8534 6.32664ZM10.0632 9.4383L8.54914 8.93975C8.1947 9.23205 7.78962 9.46054 7.35288 9.61452L7.03947 11.1575H4.95594L4.64253 9.63171C4.20924 9.47337 3.80635 9.24527 3.45069 8.95694L1.93219 9.4383L0.890426 7.71915L2.0911 6.68766C2.00948 6.24277 2.00948 5.78732 2.0911 5.34242L0.890426 4.28085L1.93219 2.5617L3.44627 3.06025C3.80071 2.76795 4.20579 2.53946 4.64253 2.38548L4.95594 0.842543H7.03947L7.35288 2.36829C7.78617 2.52663 8.18906 2.75473 8.54472 3.04306L10.0632 2.5617L11.105 4.28085L9.90431 5.31234C9.98593 5.75723 9.98593 6.21268 9.90431 6.65758L11.105 7.71915L10.0632 9.4383Z" fill="#263238"/>
<path d="M5.99767 8.57873C5.47383 8.57873 4.96177 8.42749 4.52621 8.14414C4.09066 7.86078 3.75119 7.45804 3.55073 6.98684C3.35027 6.51564 3.29782 5.99714 3.40001 5.49692C3.50221 4.99669 3.75446 4.53721 4.12486 4.17657C4.49527 3.81592 4.96719 3.57032 5.48096 3.47082C5.99473 3.37132 6.52726 3.42239 7.01122 3.61757C7.49518 3.81275 7.90883 4.14327 8.19985 4.56734C8.49088 4.99141 8.64621 5.48998 8.64621 6C8.64975 6.3396 8.58367 6.67648 8.45182 6.9909C8.31997 7.30533 8.12501 7.59098 7.87837 7.83112C7.63172 8.07127 7.33833 8.26109 7.0154 8.38946C6.69246 8.51783 6.34646 8.58218 5.99767 8.57873ZM5.99767 4.28085C5.76431 4.27556 5.53227 4.31641 5.31559 4.40093C5.0989 4.48545 4.90208 4.61189 4.73703 4.77259C4.57197 4.9333 4.44211 5.12493 4.3553 5.3359C4.26849 5.54687 4.22653 5.77279 4.23197 6C4.22653 6.22721 4.26849 6.45313 4.3553 6.6641C4.44211 6.87507 4.57197 7.06671 4.73703 7.22741C4.90208 7.38812 5.0989 7.51455 5.31559 7.59908C5.53227 7.6836 5.76431 7.72445 5.99767 7.71915C6.23103 7.72445 6.46307 7.6836 6.67975 7.59908C6.89643 7.51455 7.09325 7.38812 7.25831 7.22741C7.42336 7.06671 7.55323 6.87507 7.64004 6.6641C7.72685 6.45313 7.7688 6.22721 7.76336 6C7.7688 5.77279 7.72685 5.54687 7.64004 5.3359C7.55323 5.12493 7.42336 4.9333 7.25831 4.77259C7.09325 4.61189 6.89643 4.48545 6.67975 4.40093C6.46307 4.31641 6.23103 4.27556 5.99767 4.28085Z" fill="#263238"/>
</svg>
