<svg width="12" height="13" viewBox="0 0 12 13" fill="none" xmlns="http://www.w3.org/2000/svg">
<path d="M12.0002 7.46153C12.0011 6.99937 11.8864 6.54432 11.6664 6.13787C11.4464 5.73141 11.1282 5.38648 10.7408 5.1345C10.3534 4.88252 9.90902 4.73151 9.44829 4.69524C8.98755 4.65897 8.52506 4.73859 8.10298 4.92684C7.68089 5.11509 7.31263 5.40598 7.03177 5.77301C6.7509 6.14004 6.56636 6.57152 6.49496 7.02814C6.42357 7.48475 6.46759 7.95197 6.62301 8.38722C6.77843 8.82246 7.04032 9.21189 7.38479 9.52V13L9.23095 12.1263L11.0771 13V9.52C11.3673 9.26125 11.5995 8.94412 11.7586 8.58938C11.9176 8.23465 12 7.8503 12.0002 7.46153ZM10.154 11.5415L9.23095 11.1045L8.30787 11.5415V10.0692C8.9044 10.2847 9.5575 10.2847 10.154 10.0692V11.5415ZM9.23095 9.30769C8.86581 9.30769 8.50888 9.19941 8.20528 8.99655C7.90168 8.7937 7.66505 8.50537 7.52532 8.16802C7.38559 7.83068 7.34903 7.45948 7.42026 7.10136C7.4915 6.74324 7.66733 6.41429 7.92552 6.1561C8.18371 5.89791 8.51266 5.72208 8.87078 5.65085C9.2289 5.57961 9.6001 5.61617 9.93744 5.7559C10.2748 5.89564 10.5631 6.13226 10.766 6.43586C10.9688 6.73946 11.0771 7.0964 11.0771 7.46153C11.0765 7.95097 10.8818 8.4202 10.5357 8.76629C10.1896 9.11238 9.72039 9.30708 9.23095 9.30769ZM2.30786 5.61537H5.53864V6.53845H2.30786V5.61537ZM2.30786 2.84614H6.92325V3.76922H2.30786V2.84614Z" fill="#263238"/>
<path d="M0.923078 13C0.678338 12.9998 0.443691 12.9024 0.270633 12.7294C0.0975755 12.5563 0.000244374 12.3217 0 12.0769V0.999983C0.000244374 0.755242 0.0975755 0.520595 0.270633 0.347538C0.443691 0.17448 0.678338 0.0771487 0.923078 0.0769043H8.3077C8.55244 0.0771487 8.78709 0.17448 8.96015 0.347538C9.13321 0.520595 9.23054 0.755242 9.23078 0.999983V2.84614H8.3077V0.999983H0.923078V12.0769H5.53847V13H0.923078Z" fill="#263238"/>
</svg>
