<svg width="16" height="16" viewBox="0 0 16 16" fill="none" xmlns="http://www.w3.org/2000/svg">
<path d="M11.0069 8.95818L8.00054 5.95178L4.99414 8.95818L5.74837 9.71242L7.46721 7.99358V16H8.53388V7.99358L10.2527 9.71242L11.0069 8.95818Z" fill="#263238"/>
<path d="M12.8 4.84844V4.8C12.8 2.15333 10.6467 0 8 0C5.35334 0 3.2 2.15333 3.2 4.8V4.88304C2.41004 5.03211 1.6818 5.41145 1.10687 5.97334C0.75699 6.31292 0.478765 6.71922 0.288647 7.1682C0.0985283 7.61718 0.000377732 8.09973 0 8.5873C0 9.6246 0.426267 10.6127 1.20033 11.3696C1.95667 12.1092 2.97793 12.5333 4.00234 12.5333H6.13334V11.4667H4.00234C2.43847 11.4667 1.06667 10.1212 1.06667 8.5873C1.06667 7.17837 2.25467 5.9901 3.77123 5.88214L4.26667 5.84684V4.8C4.26667 3.80986 4.66 2.86027 5.36014 2.16014C6.06027 1.46 7.00986 1.06667 8 1.06667C8.99014 1.06667 9.93973 1.46 10.6399 2.16014C11.34 2.86027 11.7333 3.80986 11.7333 4.8V5.868L12.26 5.87467C13.8091 5.89427 14.9333 7.0351 14.9333 8.5873C14.9333 10.2019 13.7449 11.4667 12.2277 11.4667H9.86667V12.5333H12.2277C12.7359 12.535 13.2388 12.4308 13.7045 12.2273C14.1702 12.0238 14.5883 11.7256 14.9323 11.3515C15.6208 10.6113 16 9.62964 16 8.5873C16 6.6394 14.6572 5.11307 12.8 4.84844Z" fill="#263238"/>
</svg>
