<svg width="24" height="16" viewBox="0 0 24 16" fill="none" xmlns="http://www.w3.org/2000/svg">
<path d="M17.4 12C19.464 12 21.9 12.9143 22.2 13.4629V14.2857H12.6V13.4629C12.9 12.9143 15.336 12 17.4 12ZM17.4 10.2857C15.204 10.2857 10.8 11.3371 10.8 13.4286V16H24V13.4286C24 11.3371 19.596 10.2857 17.4 10.2857ZM8.4 9.14286C5.604 9.14286 0 10.48 0 13.1429V16H8.4V14.2857H1.8V13.1429C1.8 12.4229 5.148 10.6743 9.384 10.8571C9.89986 10.2696 10.5318 9.78425 11.244 9.42857C10.308 9.24574 9.35548 9.15006 8.4 9.14286ZM8.4 1.71429C8.75601 1.71429 9.10402 1.81483 9.40003 2.0032C9.69603 2.19156 9.92675 2.4593 10.063 2.77254C10.1992 3.08579 10.2349 3.43047 10.1654 3.76301C10.096 4.09555 9.92453 4.40101 9.67279 4.64075C9.42106 4.8805 9.10033 5.04377 8.75116 5.10992C8.402 5.17606 8.04008 5.14212 7.71117 5.01237C7.38226 4.88262 7.10114 4.66289 6.90336 4.38098C6.70557 4.09906 6.6 3.76763 6.6 3.42857C6.6 2.97391 6.78964 2.53788 7.12721 2.21639C7.46477 1.8949 7.92261 1.71429 8.4 1.71429ZM8.4 0C7.68799 0 6.99196 0.201082 6.39995 0.577819C5.80793 0.954555 5.34651 1.49002 5.07403 2.11651C4.80156 2.743 4.73027 3.43237 4.86917 4.09745C5.00808 4.76253 5.35095 5.37344 5.85442 5.85294C6.35788 6.33243 6.99934 6.65897 7.69768 6.79126C8.39601 6.92356 9.11985 6.85566 9.77766 6.59616C10.4355 6.33666 10.9977 5.89721 11.3933 5.33338C11.7889 4.76956 12 4.10668 12 3.42857C12 2.51926 11.6207 1.64719 10.9456 1.00421C10.2705 0.361224 9.35478 0 8.4 0ZM17.4 4C17.6373 4 17.8693 4.06703 18.0667 4.19261C18.264 4.31819 18.4178 4.49667 18.5087 4.7055C18.5995 4.91433 18.6232 5.14412 18.5769 5.36582C18.5306 5.58751 18.4164 5.79115 18.2485 5.95098C18.0807 6.11081 17.8669 6.21966 17.6341 6.26375C17.4013 6.30785 17.1601 6.28522 16.9408 6.19872C16.7215 6.11222 16.5341 5.96574 16.4022 5.7778C16.2704 5.58985 16.2 5.36889 16.2 5.14286C16.2 4.83975 16.3264 4.54906 16.5515 4.33474C16.7765 4.12041 17.0817 4 17.4 4ZM17.4 2.28571C16.8067 2.28571 16.2266 2.45328 15.7333 2.76723C15.2399 3.08118 14.8554 3.5274 14.6284 4.04948C14.4013 4.57155 14.3419 5.14603 14.4576 5.70026C14.5734 6.25449 14.8591 6.76358 15.2787 7.16316C15.6982 7.56274 16.2328 7.83486 16.8147 7.9451C17.3967 8.05534 17.9999 7.99876 18.5481 7.78251C19.0962 7.56626 19.5648 7.20006 19.8944 6.7302C20.2241 6.26035 20.4 5.70795 20.4 5.14286C20.4 4.3851 20.0839 3.65837 19.5213 3.12255C18.9587 2.58673 18.1957 2.28571 17.4 2.28571Z" fill="#263238"/>
</svg>
