<svg width="14" height="15" viewBox="0 0 14 15" fill="none" xmlns="http://www.w3.org/2000/svg">
<mask id="path-1-outside-1_422_133" maskUnits="userSpaceOnUse" x="0" y="7.94444" width="14" height="8" fill="black">
<rect fill="white" y="7.94444" width="14" height="8"/>
<path d="M1 14V13.2778C1 10.8845 2.9401 8.94444 5.33333 8.94444H8.22222C10.6154 8.94444 12.5556 10.8845 12.5556 13.2778V14"/>
</mask>
<path d="M0 14C0 14.5523 0.447715 15 1 15C1.55228 15 2 14.5523 2 14H0ZM11.5556 14C11.5556 14.5523 12.0033 15 12.5556 15C13.1078 15 13.5556 14.5523 13.5556 14H11.5556ZM2 14V13.2778H0V14H2ZM2 13.2778C2 11.4368 3.49238 9.94444 5.33333 9.94444V7.94444C2.38781 7.94444 0 10.3323 0 13.2778H2ZM5.33333 9.94444H8.22222V7.94444H5.33333V9.94444ZM8.22222 9.94444C10.0632 9.94444 11.5556 11.4368 11.5556 13.2778H13.5556C13.5556 10.3323 11.1677 7.94444 8.22222 7.94444V9.94444ZM11.5556 13.2778V14H13.5556V13.2778H11.5556Z" fill="#263238" mask="url(#path-1-outside-1_422_133)"/>
<path d="M3.38867 3.88889C3.38867 5.76052 4.90593 7.27778 6.77756 7.27778C8.64916 7.27778 10.1664 5.76052 10.1664 3.88889C10.1664 2.01725 8.64916 0.5 6.77756 0.5C4.90593 0.5 3.38867 2.01726 3.38867 3.88889Z" stroke="#263238" stroke-linecap="round"/>
</svg>
