<svg width="10" height="12" viewBox="0 0 10 12" fill="none" xmlns="http://www.w3.org/2000/svg">
<path d="M2 10.0615C2.07807 10.1226 2.17417 10.1551 2.27273 10.1538C2.34329 10.1538 2.41289 10.1372 2.47601 10.1051C2.53912 10.0731 2.59402 10.0266 2.63636 9.96923C2.91157 9.59664 3.26843 9.29423 3.67869 9.08595C4.08894 8.87767 4.54132 8.76923 5 8.76923C5.45868 8.76923 5.91106 8.87767 6.32131 9.08595C6.73157 9.29423 7.08843 9.59664 7.36364 9.96923C7.43687 10.0659 7.54442 10.1296 7.66332 10.1469C7.78221 10.1641 7.90304 10.1335 8 10.0615C8.04775 10.0252 8.08799 9.97961 8.1184 9.92746C8.14881 9.87531 8.16881 9.81758 8.17725 9.75758C8.18569 9.69758 8.18241 9.63648 8.1676 9.57776C8.15278 9.51905 8.12672 9.46387 8.09091 9.41538C7.68864 8.86709 7.15187 8.43544 6.53409 8.16346C6.87209 7.84948 7.10875 7.43912 7.21305 6.98618C7.31734 6.53324 7.28439 6.05887 7.11853 5.62527C6.95266 5.19167 6.66162 4.8191 6.28357 4.55639C5.90552 4.29368 5.45811 4.15311 5 4.15311C4.54189 4.15311 4.09448 4.29368 3.71643 4.55639C3.33838 4.8191 3.04734 5.19167 2.88147 5.62527C2.71561 6.05887 2.68266 6.53324 2.78695 6.98618C2.89125 7.43912 3.12791 7.84948 3.46591 8.16346C2.84813 8.43544 2.31136 8.86709 1.90909 9.41538C1.83676 9.51331 1.8057 9.6364 1.82275 9.75758C1.8398 9.87876 1.90356 9.98809 2 10.0615ZM5 5.07692C5.2697 5.07692 5.53335 5.15813 5.7576 5.31027C5.98184 5.46242 6.15663 5.67866 6.25984 5.93167C6.36305 6.18467 6.39005 6.46307 6.33743 6.73166C6.28482 7.00025 6.15494 7.24697 5.96424 7.44061C5.77353 7.63425 5.53055 7.76612 5.26603 7.81955C5.00151 7.87297 4.72733 7.84555 4.47816 7.74076C4.22899 7.63596 4.01602 7.45849 3.86618 7.23079C3.71634 7.00309 3.63636 6.73539 3.63636 6.46154C3.63786 6.09478 3.78201 5.74348 4.03742 5.48415C4.29282 5.22481 4.6388 5.07844 5 5.07692ZM9.09091 0H0.909091C0.667985 0 0.436754 0.0972524 0.266267 0.270363C0.0957789 0.443473 0 0.678262 0 0.923077V11.0769C0 11.3217 0.0957789 11.5565 0.266267 11.7296C0.436754 11.9027 0.667985 12 0.909091 12H9.09091C9.33202 12 9.56325 11.9027 9.73373 11.7296C9.90422 11.5565 10 11.3217 10 11.0769V0.923077C10 0.678262 9.90422 0.443473 9.73373 0.270363C9.56325 0.0972524 9.33202 0 9.09091 0ZM9.09091 11.0769H0.909091V0.923077H9.09091V11.0769ZM2.72727 2.30769C2.72727 2.18528 2.77516 2.06789 2.86041 1.98134C2.94565 1.89478 3.06127 1.84615 3.18182 1.84615H6.81818C6.93874 1.84615 7.05435 1.89478 7.13959 1.98134C7.22484 2.06789 7.27273 2.18528 7.27273 2.30769C7.27273 2.4301 7.22484 2.54749 7.13959 2.63405C7.05435 2.7206 6.93874 2.76923 6.81818 2.76923H3.18182C3.06127 2.76923 2.94565 2.7206 2.86041 2.63405C2.77516 2.54749 2.72727 2.4301 2.72727 2.30769Z" fill="#263238"/>
</svg>
