<svg width="12" height="12" viewBox="0 0 12 12" fill="none" xmlns="http://www.w3.org/2000/svg">
<path d="M3.52941 0C3.15499 0 2.7959 0.158035 2.53114 0.43934C2.26639 0.720644 2.11765 1.10218 2.11765 1.5V6.75H2.82353V1.5C2.82353 1.30109 2.8979 1.11032 3.03028 0.96967C3.16266 0.829018 3.3422 0.75 3.52941 0.75H8.47059C8.6578 0.75 8.83734 0.829018 8.96972 0.96967C9.1021 1.11032 9.17647 1.30109 9.17647 1.5V9.75H7.05882V10.5H9.88235C10.444 10.5 10.9826 10.2629 11.3798 9.84099C11.7769 9.41903 12 8.84674 12 8.25V6.75H9.88235V1.5C9.88235 1.10218 9.73361 0.720644 9.46886 0.43934C9.2041 0.158035 8.84501 0 8.47059 0H3.52941ZM11.2941 8.25C11.2941 8.64782 11.1454 9.02936 10.8806 9.31066C10.6159 9.59196 10.2568 9.75 9.88235 9.75V7.5H11.2941V8.25ZM4.58824 2.25C4.49463 2.25 4.40486 2.28951 4.33867 2.35984C4.27248 2.43016 4.23529 2.52554 4.23529 2.625C4.23529 2.72446 4.27248 2.81984 4.33867 2.89016C4.40486 2.96049 4.49463 3 4.58824 3H7.41177C7.50537 3 7.59514 2.96049 7.66133 2.89016C7.72752 2.81984 7.76471 2.72446 7.76471 2.625C7.76471 2.52554 7.72752 2.43016 7.66133 2.35984C7.59514 2.28951 7.50537 2.25 7.41177 2.25H4.58824ZM4.23529 4.125C4.23529 4.02554 4.27248 3.93016 4.33867 3.85984C4.40486 3.78951 4.49463 3.75 4.58824 3.75H7.41177C7.50537 3.75 7.59514 3.78951 7.66133 3.85984C7.72752 3.93016 7.76471 4.02554 7.76471 4.125C7.76471 4.22446 7.72752 4.31984 7.66133 4.39016C7.59514 4.46049 7.50537 4.5 7.41177 4.5H4.58824C4.49463 4.5 4.40486 4.46049 4.33867 4.39016C4.27248 4.31984 4.23529 4.22446 4.23529 4.125ZM5.29412 7.5C5.57494 7.5 5.84425 7.61853 6.04282 7.8295C6.24139 8.04048 6.35294 8.32663 6.35294 8.625V10.875C6.35294 11.1734 6.24139 11.4595 6.04282 11.6705C5.84425 11.8815 5.57494 12 5.29412 12H1.05882C0.778006 12 0.50869 11.8815 0.310122 11.6705C0.111554 11.4595 0 11.1734 0 10.875V8.625C0 8.32663 0.111554 8.04048 0.310122 7.8295C0.50869 7.61853 0.778006 7.5 1.05882 7.5H5.29412ZM5.64706 10.875V10.125C5.36624 10.125 5.09693 10.2435 4.89836 10.4545C4.69979 10.6655 4.58824 10.9516 4.58824 11.25H5.29412C5.29412 11.1505 5.3313 11.0552 5.39749 10.9848C5.46368 10.9145 5.55345 10.875 5.64706 10.875ZM5.64706 8.625C5.55345 8.625 5.46368 8.58549 5.39749 8.51517C5.3313 8.44484 5.29412 8.34946 5.29412 8.25H4.58824C4.58824 8.54837 4.69979 8.83452 4.89836 9.0455C5.09693 9.25647 5.36624 9.375 5.64706 9.375V8.625ZM1.05882 8.25C1.05882 8.34946 1.02164 8.44484 0.955449 8.51517C0.88926 8.58549 0.799488 8.625 0.705882 8.625V9.375C0.9867 9.375 1.25602 9.25647 1.45458 9.0455C1.65315 8.83452 1.76471 8.54837 1.76471 8.25H1.05882ZM0.705882 10.875C0.799488 10.875 0.88926 10.9145 0.955449 10.9848C1.02164 11.0552 1.05882 11.1505 1.05882 11.25H1.76471C1.76471 10.9516 1.65315 10.6655 1.45458 10.4545C1.25602 10.2435 0.9867 10.125 0.705882 10.125V10.875ZM3.17647 8.625C2.89565 8.625 2.62634 8.74353 2.42777 8.9545C2.2292 9.16548 2.11765 9.45163 2.11765 9.75C2.11765 10.0484 2.2292 10.3345 2.42777 10.5455C2.62634 10.7565 2.89565 10.875 3.17647 10.875C3.45729 10.875 3.7266 10.7565 3.92517 10.5455C4.12374 10.3345 4.23529 10.0484 4.23529 9.75C4.23529 9.45163 4.12374 9.16548 3.92517 8.9545C3.7266 8.74353 3.45729 8.625 3.17647 8.625Z" fill="#263238"/>
</svg>
