<svg width="12" height="9" viewBox="0 0 12 9" fill="none" xmlns="http://www.w3.org/2000/svg">
<path d="M11.25 0H0.75C0.551088 0 0.360322 0.0790176 0.21967 0.21967C0.0790176 0.360322 0 0.551088 0 0.75V8.25C0 8.44891 0.0790176 8.63968 0.21967 8.78033C0.360322 8.92098 0.551088 9 0.75 9H11.25C11.4489 9 11.6397 8.92098 11.7803 8.78033C11.921 8.63968 12 8.44891 12 8.25V0.75C12 0.551088 11.921 0.360322 11.7803 0.21967C11.6397 0.0790176 11.4489 0 11.25 0ZM11.25 8.25H0.75V0.75H11.25V8.25Z" fill="#263238"/>
<path d="M2.625 3H9.375C9.47446 3 9.56984 2.96049 9.64017 2.89016C9.71049 2.81984 9.75 2.72446 9.75 2.625C9.75 2.52554 9.71049 2.43016 9.64017 2.35984C9.56984 2.28951 9.47446 2.25 9.375 2.25H2.625C2.52554 2.25 2.43016 2.28951 2.35984 2.35984C2.28951 2.43016 2.25 2.52554 2.25 2.625C2.25 2.72446 2.28951 2.81984 2.35984 2.89016C2.43016 2.96049 2.52554 3 2.625 3Z" fill="#263238"/>
<path d="M2.625 4.5H9.375C9.47446 4.5 9.56984 4.46049 9.64017 4.39017C9.71049 4.31984 9.75 4.22446 9.75 4.125C9.75 4.02554 9.71049 3.93016 9.64017 3.85983C9.56984 3.78951 9.47446 3.75 9.375 3.75H2.625C2.52554 3.75 2.43016 3.78951 2.35984 3.85983C2.28951 3.93016 2.25 4.02554 2.25 4.125C2.25 4.22446 2.28951 4.31984 2.35984 4.39017C2.43016 4.46049 2.52554 4.5 2.625 4.5Z" fill="#263238"/>
<path d="M2.625 6H6.375C6.47446 6 6.56984 5.96049 6.64017 5.89017C6.71049 5.81984 6.75 5.72446 6.75 5.625C6.75 5.52554 6.71049 5.43016 6.64017 5.35983C6.56984 5.28951 6.47446 5.25 6.375 5.25H2.625C2.52554 5.25 2.43016 5.28951 2.35984 5.35983C2.28951 5.43016 2.25 5.52554 2.25 5.625C2.25 5.72446 2.28951 5.81984 2.35984 5.89017C2.43016 5.96049 2.52554 6 2.625 6Z" fill="#263238"/>
</svg>
