<svg width="14" height="14" viewBox="0 0 14 14" fill="none" xmlns="http://www.w3.org/2000/svg">
<path d="M13.125 1.30973L9.62194 1.30974V0.437603C9.62194 0.195827 9.42616 0 9.18444 0C8.94272 0 8.74694 0.195827 8.74694 0.437603V1.30953H5.24694V0.437603C5.24694 0.195827 5.05116 0 4.80944 0C4.56772 0 4.37194 0.195827 4.37194 0.437603V1.30953H0.875C0.391781 1.30953 0 1.7014 0 2.18473V13.1248C0 13.6081 0.391781 14 0.875 14H13.125C13.6082 14 14 13.6081 14 13.1248V2.18473C14 1.7016 13.6082 1.30973 13.125 1.30973ZM13.125 13.1248H0.875V2.18473H4.37194V2.62562C4.37194 2.86738 4.56772 3.06322 4.80944 3.06322C5.05116 3.06322 5.24694 2.86738 5.24694 2.62562V2.18495H8.74694V2.62583C8.74694 2.86761 8.94272 3.06344 9.18444 3.06344C9.42616 3.06344 9.62194 2.86761 9.62194 2.62583V2.18495H13.125V13.1248ZM10.0625 6.99856H10.9375C11.179 6.99856 11.375 6.80252 11.375 6.56096V5.68576C11.375 5.4442 11.179 5.24815 10.9375 5.24815H10.0625C9.821 5.24815 9.625 5.4442 9.625 5.68576V6.56096C9.625 6.80252 9.821 6.99856 10.0625 6.99856ZM10.0625 10.4992H10.9375C11.179 10.4992 11.375 10.3033 11.375 10.0616V9.18636C11.375 8.9448 11.179 8.74876 10.9375 8.74876H10.0625C9.821 8.74876 9.625 8.9448 9.625 9.18636V10.0616C9.625 10.3036 9.821 10.4992 10.0625 10.4992ZM7.4375 8.74876H6.5625C6.321 8.74876 6.125 8.9448 6.125 9.18636V10.0616C6.125 10.3033 6.321 10.4992 6.5625 10.4992H7.4375C7.679 10.4992 7.875 10.3033 7.875 10.0616V9.18636C7.875 8.94502 7.679 8.74876 7.4375 8.74876ZM7.4375 5.24815H6.5625C6.321 5.24815 6.125 5.4442 6.125 5.68576V6.56096C6.125 6.80252 6.321 6.99856 6.5625 6.99856H7.4375C7.679 6.99856 7.875 6.80252 7.875 6.56096V5.68576C7.875 5.44398 7.679 5.24815 7.4375 5.24815ZM3.9375 5.24815H3.0625C2.821 5.24815 2.625 5.4442 2.625 5.68576V6.56096C2.625 6.80252 2.821 6.99856 3.0625 6.99856H3.9375C4.179 6.99856 4.375 6.80252 4.375 6.56096V5.68576C4.375 5.44398 4.179 5.24815 3.9375 5.24815ZM3.9375 8.74876H3.0625C2.821 8.74876 2.625 8.9448 2.625 9.18636V10.0616C2.625 10.3033 2.821 10.4992 3.0625 10.4992H3.9375C4.179 10.4992 4.375 10.3033 4.375 10.0616V9.18636C4.375 8.94502 4.179 8.74876 3.9375 8.74876Z" fill="#263238"/>
</svg>
